# This file uses centimeters as units for non-parametric coordinates.

mtllib CameraMarker'.mtl
g default
v 1.644462 -0.216504 -0.598535
v 1.340578 -0.216504 -1.124878
v 0.875000 -0.216504 -1.515544
v 0.303885 -0.216504 -1.723413
v -0.303884 -0.216504 -1.723414
v -0.875000 -0.216504 -1.515545
v -1.340577 -0.216504 -1.124879
v -1.644462 -0.216504 -0.598536
v -1.750000 -0.216504 -0.000000
v -1.644462 -0.216504 0.598535
v -1.340578 -0.216504 1.124878
v -0.875000 -0.216504 1.515544
v -0.303885 -0.216504 1.723413
v 0.303884 -0.216504 1.723414
v 0.875000 -0.216504 1.515545
v 1.340578 -0.216504 1.124878
v 1.644462 -0.216504 0.598535
v 1.750000 -0.216504 0.000000
v 1.996847 0.216506 -0.726792
v 1.627845 0.216506 -1.365923
v 1.062500 0.216506 -1.840304
v 0.369003 0.216506 -2.092716
v -0.369002 0.216506 -2.092716
v -1.062500 0.216506 -1.840304
v -1.627844 0.216506 -1.365924
v -1.996847 0.216506 -0.726793
v -2.125000 0.216506 -0.000001
v -1.996847 0.216506 0.726792
v -1.627845 0.216506 1.365923
v -1.062500 0.216506 1.840304
v -0.369003 0.216506 2.092716
v 0.369002 0.216506 2.092716
v 1.062500 0.216506 1.840304
v 1.627844 0.216506 1.365924
v 1.996847 0.216506 0.726793
v 2.125000 0.216506 0.000000
v 1.996847 -0.216506 -0.726792
v 1.627845 -0.216506 -1.365923
v 1.062500 -0.216506 -1.840304
v 0.369003 -0.216506 -2.092716
v -0.369002 -0.216506 -2.092716
v -1.062500 -0.216506 -1.840304
v -1.627844 -0.216506 -1.365924
v -1.996847 -0.216506 -0.726793
v -2.125000 -0.216506 -0.000001
v -1.996847 -0.216506 0.726792
v -1.627845 -0.216506 1.365923
v -1.062500 -0.216506 1.840304
v -0.369003 -0.216506 2.092716
v 0.369002 -0.216506 2.092716
v 1.062500 -0.216506 1.840304
v 1.627844 -0.216506 1.365924
v 1.996847 -0.216506 0.726793
v 2.125000 -0.216506 0.000000
v 1.996847 -0.000000 -0.726792
v 1.627845 -0.000000 -1.365923
v 1.062500 -0.000000 -1.840304
v 0.369003 -0.000000 -2.092716
v -0.369002 -0.000000 -2.092716
v -1.062500 -0.000000 -1.840304
v -1.627844 -0.000000 -1.365924
v -1.996847 -0.000000 -0.726793
v -2.125000 -0.000000 -0.000001
v -1.996847 -0.000000 0.726792
v -1.627845 -0.000000 1.365923
v -1.062500 -0.000000 1.840304
v -0.369003 -0.000000 2.092716
v 0.369002 -0.000000 2.092716
v 1.062500 -0.000000 1.840304
v 1.627844 -0.000000 1.365924
v 1.996847 -0.000000 0.726793
v 2.125000 -0.000000 0.000000
v 1.996847 0.173205 -0.726792
v 1.627845 0.173205 -1.365923
v 1.062500 0.173205 -1.840304
v 0.369003 0.173205 -2.092716
v -0.369002 0.173205 -2.092716
v -1.062500 0.173205 -1.840304
v -1.627844 0.173205 -1.365924
v -1.996847 0.173205 -0.726793
v -2.125000 0.173205 -0.000001
v -1.996847 0.173205 0.726792
v -1.627845 0.173205 1.365923
v -1.062500 0.173205 1.840304
v -0.369003 0.173205 2.092716
v 0.369002 0.173205 2.092716
v 1.062500 0.173205 1.840304
v 1.627844 0.173205 1.365924
v 1.996847 0.173205 0.726793
v 2.125000 0.173205 0.000000
v 1.996847 -0.173205 -0.726792
v 1.627845 -0.173205 -1.365923
v 1.062500 -0.173205 -1.840304
v 0.369003 -0.173205 -2.092716
v -0.369002 -0.173205 -2.092716
v -1.062500 -0.173205 -1.840304
v -1.627844 -0.173205 -1.365924
v -1.996847 -0.173205 -0.726793
v -2.125000 -0.173205 -0.000001
v -1.996847 -0.173205 0.726792
v -1.627845 -0.173205 1.365923
v -1.062500 -0.173205 1.840304
v -0.369003 -0.173205 2.092716
v 0.369002 -0.173205 2.092716
v 1.062500 -0.173205 1.840304
v 1.627844 -0.173205 1.365924
v 1.996847 -0.173205 0.726793
v 2.125000 -0.173205 0.000000
v 1.820655 -0.216505 -0.662663
v 1.484211 -0.216505 -1.245400
v 0.968750 -0.216505 -1.677924
v 0.336444 -0.216505 -1.908065
v -0.336443 -0.216505 -1.908065
v -0.968750 -0.216505 -1.677924
v -1.484211 -0.216505 -1.245401
v -1.820654 -0.216505 -0.662664
v -1.937500 -0.216505 -0.000000
v -1.820655 -0.216505 0.662664
v -1.484211 -0.216505 1.245401
v -0.968750 -0.216505 1.677924
v -0.336444 -0.216505 1.908065
v 0.336443 -0.216505 1.908065
v 0.968750 -0.216505 1.677924
v 1.484211 -0.216505 1.245401
v 1.820654 -0.216505 0.662664
v 1.937500 -0.216505 0.000000
v 1.679701 -0.216504 -0.611360
v 1.369305 -0.216504 -1.148982
v 0.893750 -0.216504 -1.548020
v 0.310397 -0.216504 -1.760344
v -0.310396 -0.216504 -1.760344
v -0.893750 -0.216504 -1.548021
v -1.369304 -0.216504 -1.148983
v -1.679700 -0.216504 -0.611361
v -1.787500 -0.216504 -0.000000
v -1.679701 -0.216504 0.611361
v -1.369305 -0.216504 1.148983
v -0.893750 -0.216504 1.548020
v -0.310396 -0.216504 1.760344
v 0.310396 -0.216504 1.760344
v 0.893750 -0.216504 1.548020
v 1.369304 -0.216504 1.148983
v 1.679701 -0.216504 0.611361
v 1.787500 -0.216504 0.000000
v 1.961609 -0.216506 -0.713966
v 1.599118 -0.216506 -1.341819
v 1.043751 -0.216506 -1.807828
v 0.362491 -0.216506 -2.055786
v -0.362490 -0.216506 -2.055786
v -1.043750 -0.216506 -1.807828
v -1.599118 -0.216506 -1.341820
v -1.961608 -0.216506 -0.713968
v -2.087500 -0.216506 -0.000000
v -1.961609 -0.216506 0.713967
v -1.599118 -0.216506 1.341819
v -1.043750 -0.216506 1.807828
v -0.362491 -0.216506 2.055786
v 0.362490 -0.216506 2.055786
v 1.043750 -0.216506 1.807828
v 1.599118 -0.216506 1.341819
v 1.961608 -0.216506 0.713967
v 2.087500 -0.216506 0.000000
v 1.820655 0.000001 -0.662663
v 1.484211 0.000001 -1.245400
v 0.968750 0.000001 -1.677924
v 0.336444 0.000001 -1.908065
v -0.336443 0.000001 -1.908065
v -0.968750 0.000001 -1.677924
v -1.484211 0.000001 -1.245401
v -1.820654 0.000001 -0.662664
v -1.937500 0.000001 -0.000000
v -1.820655 0.000001 0.662664
v -1.484211 0.000001 1.245401
v -0.968750 0.000001 1.677924
v -0.336444 0.000001 1.908065
v 0.336443 0.000001 1.908065
v 0.968750 0.000001 1.677924
v 1.484211 0.000001 1.245401
v 1.820654 0.000001 0.662664
v 1.937500 0.000001 0.000000
v 1.961609 0.173205 -0.713966
v 1.599118 0.173205 -1.341819
v 1.043751 0.173205 -1.807828
v 0.362491 0.173205 -2.055786
v -0.362490 0.173205 -2.055786
v -1.043749 0.173205 -1.807828
v -1.599117 0.173205 -1.341820
v -1.961608 0.173205 -0.713968
v -2.087500 0.173205 -0.000000
v -1.961608 0.173205 0.713967
v -1.599118 0.173205 1.341819
v -1.043750 0.173205 1.807828
v -0.362491 0.173205 2.055786
v 0.362490 0.173205 2.055786
v 1.043750 0.173205 1.807828
v 1.599118 0.173205 1.341819
v 1.961608 0.173205 0.713967
v 2.087500 0.173205 0.000000
v 1.679701 -0.173203 -0.611360
v 1.369305 -0.173203 -1.148982
v 0.893750 -0.173203 -1.548020
v 0.310397 -0.173203 -1.760344
v -0.310396 -0.173203 -1.760344
v -0.893750 -0.173203 -1.548021
v -1.369304 -0.173203 -1.148983
v -1.679700 -0.173203 -0.611361
v -1.787500 -0.173203 -0.000000
v -1.679701 -0.173203 0.611361
v -1.369305 -0.173203 1.148983
v -0.893750 -0.173203 1.548020
v -0.310396 -0.173203 1.760344
v 0.310396 -0.173203 1.760344
v 0.893750 -0.173203 1.548020
v 1.369304 -0.173203 1.148983
v 1.679701 -0.173203 0.611361
v 1.787500 -0.173203 0.000000
vt 0.000000 1.000000
vt 0.055556 1.000000
vt 0.111111 1.000000
vt 0.166667 1.000000
vt 0.222222 1.000000
vt 0.277778 1.000000
vt 0.333333 1.000000
vt 0.388889 1.000000
vt 0.444444 1.000000
vt 0.500000 1.000000
vt 0.555556 1.000000
vt 0.611111 1.000000
vt 0.666667 1.000000
vt 0.722222 1.000000
vt 0.777778 1.000000
vt 0.833333 1.000000
vt 0.888889 1.000000
vt 0.944445 1.000000
vt 1.000000 1.000000
vt 0.000000 0.666667
vt 0.055556 0.666667
vt 0.111111 0.666667
vt 0.166667 0.666667
vt 0.222222 0.666667
vt 0.277778 0.666667
vt 0.333333 0.666667
vt 0.388889 0.666667
vt 0.444444 0.666667
vt 0.500000 0.666667
vt 0.555556 0.666667
vt 0.611111 0.666667
vt 0.666667 0.666667
vt 0.722222 0.666667
vt 0.777778 0.666667
vt 0.833333 0.666667
vt 0.888889 0.666667
vt 0.944445 0.666667
vt 1.000000 0.666667
vt 0.000000 0.333333
vt 0.055556 0.333333
vt 0.111111 0.333333
vt 0.166667 0.333333
vt 0.222222 0.333333
vt 0.277778 0.333333
vt 0.333333 0.333333
vt 0.388889 0.333333
vt 0.444444 0.333333
vt 0.500000 0.333333
vt 0.555556 0.333333
vt 0.611111 0.333333
vt 0.666667 0.333333
vt 0.722222 0.333333
vt 0.777778 0.333333
vt 0.833333 0.333333
vt 0.888889 0.333333
vt 0.944445 0.333333
vt 1.000000 0.333333
vt 0.000000 -0.000000
vt 0.055556 -0.000000
vt 0.111111 -0.000000
vt 0.166667 -0.000000
vt 0.222222 -0.000000
vt 0.277778 -0.000000
vt 0.333333 -0.000000
vt 0.388889 -0.000000
vt 0.444444 -0.000000
vt 0.500000 -0.000000
vt 0.555556 -0.000000
vt 0.611111 -0.000000
vt 0.666667 -0.000000
vt 0.722222 -0.000000
vt 0.777778 -0.000000
vt 0.833333 -0.000000
vt 0.888889 -0.000000
vt 0.944445 -0.000000
vt 1.000000 -0.000000
vt 0.000000 0.500000
vt 1.000000 0.500000
vt 0.055556 0.500000
vt 0.111111 0.500000
vt 0.166667 0.500000
vt 0.222222 0.500000
vt 0.277778 0.500000
vt 0.333333 0.500000
vt 0.388889 0.500000
vt 0.444444 0.500000
vt 0.500000 0.500000
vt 0.555556 0.500000
vt 0.611111 0.500000
vt 0.666667 0.500000
vt 0.722222 0.500000
vt 0.777778 0.500000
vt 0.833333 0.500000
vt 0.888889 0.500000
vt 0.944445 0.500000
vt 0.000000 0.633333
vt 1.000000 0.633333
vt 0.055556 0.633333
vt 0.111111 0.633333
vt 0.166667 0.633333
vt 0.222222 0.633333
vt 0.277778 0.633333
vt 0.333333 0.633333
vt 0.388889 0.633333
vt 0.444444 0.633333
vt 0.500000 0.633333
vt 0.555556 0.633333
vt 0.611111 0.633333
vt 0.666667 0.633333
vt 0.722222 0.633333
vt 0.777778 0.633333
vt 0.833333 0.633333
vt 0.888889 0.633333
vt 0.944445 0.633333
vt 0.000000 0.366667
vt 1.000000 0.366667
vt 0.055556 0.366667
vt 0.111111 0.366667
vt 0.166667 0.366667
vt 0.222222 0.366667
vt 0.277778 0.366667
vt 0.333333 0.366667
vt 0.388889 0.366667
vt 0.444444 0.366667
vt 0.500000 0.366667
vt 0.555556 0.366667
vt 0.611111 0.366667
vt 0.666667 0.366667
vt 0.722222 0.366667
vt 0.777778 0.366667
vt 0.833333 0.366667
vt 0.888889 0.366667
vt 0.944445 0.366667
vt 0.000000 0.166667
vt 1.000000 0.166667
vt 0.055556 0.166667
vt 0.111111 0.166667
vt 0.166667 0.166667
vt 0.222222 0.166667
vt 0.277778 0.166667
vt 0.333333 0.166667
vt 0.388889 0.166667
vt 0.444444 0.166667
vt 0.500000 0.166667
vt 0.555556 0.166667
vt 0.611111 0.166667
vt 0.666667 0.166667
vt 0.722222 0.166667
vt 0.777778 0.166667
vt 0.833333 0.166667
vt 0.888889 0.166667
vt 0.944445 0.166667
vt 0.000000 0.033333
vt 1.000000 0.033333
vt 0.055556 0.033333
vt 0.111111 0.033333
vt 0.166667 0.033333
vt 0.222222 0.033333
vt 0.277778 0.033333
vt 0.333333 0.033333
vt 0.388889 0.033333
vt 0.444444 0.033333
vt 0.500000 0.033333
vt 0.555556 0.033333
vt 0.611111 0.033333
vt 0.666667 0.033333
vt 0.722222 0.033333
vt 0.777778 0.033333
vt 0.833333 0.033333
vt 0.888889 0.033333
vt 0.944445 0.033333
vt 0.000000 0.300000
vt 1.000000 0.300000
vt 0.055556 0.300000
vt 0.111111 0.300000
vt 0.166667 0.300000
vt 0.222222 0.300000
vt 0.277778 0.300000
vt 0.333333 0.300000
vt 0.388889 0.300000
vt 0.444444 0.300000
vt 0.500000 0.300000
vt 0.555556 0.300000
vt 0.611111 0.300000
vt 0.666667 0.300000
vt 0.722222 0.300000
vt 0.777778 0.300000
vt 0.833333 0.300000
vt 0.888889 0.300000
vt 0.944445 0.300000
vt 0.000000 0.833333
vt 1.000000 0.833333
vt 0.055556 0.833333
vt 0.111111 0.833333
vt 0.166667 0.833333
vt 0.222222 0.833333
vt 0.277778 0.833333
vt 0.333333 0.833333
vt 0.388889 0.833333
vt 0.444444 0.833333
vt 0.500000 0.833333
vt 0.555556 0.833333
vt 0.611111 0.833333
vt 0.666667 0.833333
vt 0.722222 0.833333
vt 0.777778 0.833333
vt 0.833333 0.833333
vt 0.888889 0.833333
vt 0.944445 0.833333
vt 0.000000 0.700000
vt 1.000000 0.700000
vt 0.055556 0.700000
vt 0.111111 0.700000
vt 0.166667 0.700000
vt 0.222222 0.700000
vt 0.277778 0.700000
vt 0.333333 0.700000
vt 0.388889 0.700000
vt 0.444444 0.700000
vt 0.500000 0.700000
vt 0.555556 0.700000
vt 0.611111 0.700000
vt 0.666667 0.700000
vt 0.722222 0.700000
vt 0.777778 0.700000
vt 0.833333 0.700000
vt 0.888889 0.700000
vt 0.944445 0.700000
vt 0.000000 0.966667
vt 1.000000 0.966667
vt 0.055556 0.966667
vt 0.111111 0.966667
vt 0.166667 0.966667
vt 0.222222 0.966667
vt 0.277778 0.966667
vt 0.333333 0.966667
vt 0.388889 0.966667
vt 0.444444 0.966667
vt 0.500000 0.966667
vt 0.555556 0.966667
vt 0.611111 0.966667
vt 0.666667 0.966667
vt 0.722222 0.966667
vt 0.777778 0.966667
vt 0.833333 0.966667
vt 0.888889 0.966667
vt 0.944445 0.966667
vn -0.579074 0.654656 0.485900
vn -0.710339 0.654656 0.258542
vn -0.710339 0.654655 0.258542
vn -0.579074 0.654655 0.485901
vn -0.377964 0.654656 0.654652
vn -0.377964 0.654655 0.654652
vn -0.131266 0.654656 0.744443
vn -0.131266 0.654655 0.744443
vn 0.131265 0.654656 0.744443
vn 0.131265 0.654655 0.744443
vn 0.377963 0.654656 0.654652
vn 0.377964 0.654655 0.654652
vn 0.579073 0.654656 0.485900
vn 0.579074 0.654655 0.485901
vn 0.710338 0.654657 0.258542
vn 0.710339 0.654656 0.258543
vn 0.755926 0.654657 0.000000
vn 0.755927 0.654656 0.000000
vn 0.710339 0.654656 -0.258542
vn 0.710340 0.654655 -0.258542
vn 0.579074 0.654656 -0.485900
vn 0.579074 0.654655 -0.485901
vn 0.377963 0.654656 -0.654652
vn 0.377964 0.654656 -0.654652
vn 0.131265 0.654656 -0.744443
vn 0.131265 0.654656 -0.744443
vn -0.131265 0.654656 -0.744443
vn -0.131265 0.654656 -0.744443
vn -0.377964 0.654656 -0.654652
vn -0.377964 0.654656 -0.654652
vn -0.579074 0.654656 -0.485901
vn -0.579074 0.654656 -0.485901
vn -0.710338 0.654657 -0.258542
vn -0.710339 0.654656 -0.258542
vn -0.755926 0.654657 -0.000000
vn -0.755927 0.654655 -0.000000
vn 0.766045 0.000001 -0.642787
vn 0.939693 0.000001 -0.342020
vn 0.939693 -0.000000 -0.342020
vn 0.766044 -0.000000 -0.642788
vn 0.500000 0.000000 -0.866025
vn 0.500000 0.000000 -0.866025
vn 0.173648 0.000000 -0.984808
vn 0.173649 -0.000000 -0.984808
vn -0.173648 0.000000 -0.984808
vn -0.173648 0.000000 -0.984808
vn -0.500000 0.000000 -0.866026
vn -0.500000 0.000000 -0.866026
vn -0.766044 -0.000000 -0.642788
vn -0.766044 0.000000 -0.642788
vn -0.939693 -0.000002 -0.342020
vn -0.939693 0.000000 -0.342020
vn -1.000000 -0.000004 -0.000000
vn -1.000000 0.000000 -0.000000
vn -0.939693 -0.000002 0.342020
vn -0.939693 0.000000 0.342020
vn -0.766045 0.000001 0.642787
vn -0.766045 0.000000 0.642788
vn -0.500000 0.000002 0.866025
vn -0.500000 -0.000000 0.866025
vn -0.173648 0.000001 0.984808
vn -0.173648 0.000000 0.984808
vn 0.173648 0.000000 0.984808
vn 0.173648 0.000000 0.984808
vn 0.500000 0.000000 0.866026
vn 0.500000 0.000000 0.866026
vn 0.766044 0.000000 0.642788
vn 0.766044 0.000000 0.642788
vn 0.939693 0.000000 0.342020
vn 0.939693 0.000000 0.342020
vn 1.000000 0.000000 0.000000
vn 1.000000 0.000000 0.000000
vn -0.000004 -1.000000 0.000004
vn -0.000005 -1.000000 0.000002
vn -0.000005 -1.000000 0.000002
vn -0.000004 -1.000000 0.000004
vn -0.000003 -1.000000 0.000005
vn -0.000003 -1.000000 0.000005
vn -0.000001 -1.000000 0.000005
vn -0.000001 -1.000000 0.000006
vn 0.000001 -1.000000 0.000005
vn 0.000001 -1.000000 0.000006
vn 0.000003 -1.000000 0.000005
vn 0.000003 -1.000000 0.000005
vn 0.000004 -1.000000 0.000004
vn 0.000004 -1.000000 0.000004
vn 0.000005 -1.000000 0.000002
vn 0.000005 -1.000000 0.000002
vn 0.000006 -1.000000 -0.000000
vn 0.000006 -1.000000 -0.000000
vn 0.000005 -1.000000 -0.000002
vn 0.000005 -1.000000 -0.000002
vn 0.000004 -1.000000 -0.000003
vn 0.000004 -1.000000 -0.000004
vn 0.000003 -1.000000 -0.000005
vn 0.000003 -1.000000 -0.000005
vn 0.000001 -1.000000 -0.000006
vn 0.000001 -1.000000 -0.000006
vn -0.000001 -1.000000 -0.000005
vn -0.000001 -1.000000 -0.000006
vn -0.000003 -1.000000 -0.000005
vn -0.000003 -1.000000 -0.000005
vn -0.000004 -1.000000 -0.000003
vn -0.000004 -1.000000 -0.000004
vn -0.000005 -1.000000 -0.000002
vn -0.000005 -1.000000 -0.000002
vn -0.000006 -1.000000 0.000000
vn -0.000006 -1.000000 -0.000000
vn 0.766045 0.000000 -0.642787
vn 0.939693 -0.000000 -0.342020
vn 0.939693 0.000000 -0.342020
vn 0.766045 0.000000 -0.642788
vn 0.500000 0.000000 -0.866025
vn 0.500000 0.000000 -0.866025
vn 0.173648 -0.000000 -0.984808
vn 0.173648 0.000000 -0.984808
vn -0.173648 -0.000000 -0.984808
vn -0.173648 0.000000 -0.984808
vn -0.500000 0.000000 -0.866026
vn -0.500000 0.000000 -0.866026
vn -0.766044 0.000000 -0.642788
vn -0.766044 0.000000 -0.642788
vn -0.939693 0.000000 -0.342020
vn -0.939693 0.000000 -0.342020
vn -1.000000 0.000000 -0.000000
vn -1.000000 -0.000000 -0.000000
vn -0.939693 0.000000 0.342020
vn -0.939693 -0.000000 0.342020
vn -0.766044 -0.000000 0.642788
vn -0.766045 0.000000 0.642788
vn -0.500000 -0.000000 0.866025
vn -0.500000 0.000000 0.866025
vn -0.173648 -0.000000 0.984808
vn -0.173648 0.000000 0.984808
vn 0.173648 0.000000 0.984808
vn 0.173648 0.000000 0.984808
vn 0.500000 0.000000 0.866026
vn 0.500000 0.000000 0.866025
vn 0.766044 0.000000 0.642788
vn 0.766045 0.000000 0.642788
vn 0.939693 0.000000 0.342020
vn 0.939693 0.000000 0.342020
vn 1.000000 -0.000000 0.000000
vn 1.000000 0.000000 0.000000
vn 0.939693 -0.000001 -0.342020
vn 0.766045 -0.000001 -0.642787
vn 0.500000 0.000000 -0.866025
vn 0.173648 0.000000 -0.984808
vn -0.173648 0.000000 -0.984808
vn -0.500000 0.000000 -0.866026
vn -0.766044 0.000000 -0.642788
vn -0.939693 0.000000 -0.342020
vn -1.000000 0.000002 -0.000000
vn -0.939693 0.000002 0.342020
vn -0.766045 0.000000 0.642788
vn -0.500000 0.000000 0.866025
vn -0.173648 0.000000 0.984808
vn 0.173648 0.000000 0.984808
vn 0.500000 0.000000 0.866026
vn 0.766044 0.000000 0.642788
vn 0.939693 0.000000 0.342020
vn 1.000000 0.000000 0.000000
vn -0.000004 -1.000000 0.000004
vn -0.000005 -1.000000 0.000002
vn -0.000005 -1.000000 0.000002
vn -0.000004 -1.000000 0.000004
vn -0.000003 -1.000000 0.000005
vn -0.000003 -1.000000 0.000005
vn -0.000001 -1.000000 0.000006
vn -0.000001 -1.000000 0.000006
vn 0.000001 -1.000000 0.000006
vn 0.000001 -1.000000 0.000006
vn 0.000003 -1.000000 0.000005
vn 0.000003 -1.000000 0.000005
vn 0.000004 -1.000000 0.000004
vn 0.000004 -1.000000 0.000004
vn 0.000005 -1.000000 0.000002
vn 0.000005 -1.000000 0.000002
vn 0.000006 -1.000000 -0.000000
vn 0.000006 -1.000000 0.000000
vn 0.000005 -1.000000 -0.000002
vn 0.000005 -1.000000 -0.000002
vn 0.000004 -1.000000 -0.000004
vn 0.000004 -1.000000 -0.000004
vn 0.000003 -1.000000 -0.000005
vn 0.000003 -1.000000 -0.000005
vn 0.000001 -1.000000 -0.000006
vn 0.000001 -1.000000 -0.000006
vn -0.000001 -1.000000 -0.000006
vn -0.000001 -1.000000 -0.000006
vn -0.000003 -1.000000 -0.000005
vn -0.000003 -1.000000 -0.000005
vn -0.000004 -1.000000 -0.000004
vn -0.000004 -1.000000 -0.000004
vn -0.000005 -1.000000 -0.000002
vn -0.000005 -1.000000 -0.000002
vn -0.000006 -1.000000 -0.000000
vn -0.000006 -1.000000 -0.000000
vn -0.000006 -1.000000 0.000002
vn -0.000005 -1.000000 0.000004
vn -0.000003 -1.000000 0.000005
vn -0.000001 -1.000000 0.000006
vn 0.000001 -1.000000 0.000006
vn 0.000003 -1.000000 0.000005
vn 0.000005 -1.000000 0.000004
vn 0.000006 -1.000000 0.000002
vn 0.000006 -1.000000 -0.000000
vn 0.000006 -1.000000 -0.000002
vn 0.000005 -1.000000 -0.000004
vn 0.000003 -1.000000 -0.000005
vn 0.000001 -1.000000 -0.000006
vn -0.000001 -1.000000 -0.000006
vn -0.000003 -1.000000 -0.000005
vn -0.000005 -1.000000 -0.000004
vn -0.000006 -1.000000 -0.000002
vn -0.000006 -1.000000 -0.000000
vn -0.579074 0.654656 0.485901
vn -0.710339 0.654656 0.258542
vn -0.710339 0.654656 0.258542
vn -0.579074 0.654656 0.485901
vn -0.377964 0.654655 0.654652
vn -0.377964 0.654655 0.654652
vn -0.131266 0.654655 0.744443
vn -0.131266 0.654655 0.744443
vn 0.131265 0.654655 0.744443
vn 0.131265 0.654656 0.744443
vn 0.377964 0.654656 0.654652
vn 0.377963 0.654656 0.654652
vn 0.579074 0.654656 0.485901
vn 0.579074 0.654656 0.485901
vn 0.710339 0.654655 0.258543
vn 0.710339 0.654656 0.258542
vn 0.755928 0.654655 0.000000
vn 0.755927 0.654656 0.000000
vn 0.710340 0.654655 -0.258542
vn 0.710339 0.654656 -0.258542
vn 0.579074 0.654655 -0.485901
vn 0.579074 0.654656 -0.485901
vn 0.377964 0.654655 -0.654652
vn 0.377964 0.654656 -0.654652
vn 0.131265 0.654655 -0.744443
vn 0.131266 0.654656 -0.744443
vn -0.131265 0.654655 -0.744443
vn -0.131265 0.654656 -0.744443
vn -0.377964 0.654656 -0.654652
vn -0.377964 0.654656 -0.654652
vn -0.579074 0.654656 -0.485901
vn -0.579074 0.654656 -0.485901
vn -0.710339 0.654656 -0.258542
vn -0.710339 0.654656 -0.258542
vn -0.755927 0.654655 -0.000000
vn -0.755927 0.654656 -0.000000
vn -0.710340 0.654655 0.258543
vn -0.579074 0.654655 0.485901
vn -0.377964 0.654656 0.654652
vn -0.131266 0.654656 0.744443
vn 0.131265 0.654656 0.744443
vn 0.377964 0.654655 0.654652
vn 0.579075 0.654655 0.485901
vn 0.710339 0.654656 0.258542
vn 0.755926 0.654657 0.000000
vn 0.710339 0.654656 -0.258542
vn 0.579074 0.654655 -0.485901
vn 0.377964 0.654656 -0.654652
vn 0.131265 0.654656 -0.744443
vn -0.131265 0.654656 -0.744443
vn -0.377963 0.654656 -0.654652
vn -0.579074 0.654656 -0.485901
vn -0.710340 0.654655 -0.258543
vn -0.755928 0.654655 -0.000000
s 1
g Ring Geo_Grp Camera_marker
usemtl initialShadingGroup
f 2/2/1 1/1/2 199/229/3 200/231/4
f 3/3/5 2/2/1 200/231/4 201/232/6
f 4/4/7 3/3/5 201/232/6 202/233/8
f 5/5/9 4/4/7 202/233/8 203/234/10
f 6/6/11 5/5/9 203/234/10 204/235/12
f 7/7/13 6/6/11 204/235/12 205/236/14
f 8/8/15 7/7/13 205/236/14 206/237/16
f 9/9/17 8/8/15 206/237/16 207/238/18
f 10/10/19 9/9/17 207/238/18 208/239/20
f 11/11/21 10/10/19 208/239/20 209/240/22
f 12/12/23 11/11/21 209/240/22 210/241/24
f 13/13/25 12/12/23 210/241/24 211/242/26
f 14/14/27 13/13/25 211/242/26 212/243/28
f 15/15/29 14/14/27 212/243/28 213/244/30
f 16/16/31 15/15/29 213/244/30 214/245/32
f 17/17/33 16/16/31 214/245/32 215/246/34
f 18/18/35 17/17/33 215/246/34 216/247/36
f 1/19/2 18/18/35 216/247/36 199/230/3
s 2
f 20/21/37 19/20/38 73/96/39 74/98/40
f 21/22/41 20/21/37 74/98/40 75/99/42
f 22/23/43 21/22/41 75/99/42 76/100/44
f 23/24/45 22/23/43 76/100/44 77/101/46
f 24/25/47 23/24/45 77/101/46 78/102/48
f 25/26/49 24/25/47 78/102/48 79/103/50
f 26/27/51 25/26/49 79/103/50 80/104/52
f 27/28/53 26/27/51 80/104/52 81/105/54
f 28/29/55 27/28/53 81/105/54 82/106/56
f 29/30/57 28/29/55 82/106/56 83/107/58
f 30/31/59 29/30/57 83/107/58 84/108/60
f 31/32/61 30/31/59 84/108/60 85/109/62
f 32/33/63 31/32/61 85/109/62 86/110/64
f 33/34/65 32/33/63 86/110/64 87/111/66
f 34/35/67 33/34/65 87/111/66 88/112/68
f 35/36/69 34/35/67 88/112/68 89/113/70
f 36/37/71 35/36/69 89/113/70 90/114/72
f 19/38/38 36/37/71 90/114/72 73/97/39
s 3
f 38/40/73 37/39/74 145/172/75 146/174/76
f 39/41/77 38/40/73 146/174/76 147/175/78
f 40/42/79 39/41/77 147/175/78 148/176/80
f 41/43/81 40/42/79 148/176/80 149/177/82
f 42/44/83 41/43/81 149/177/82 150/178/84
f 43/45/85 42/44/83 150/178/84 151/179/86
f 44/46/87 43/45/85 151/179/86 152/180/88
f 45/47/89 44/46/87 152/180/88 153/181/90
f 46/48/91 45/47/89 153/181/90 154/182/92
f 47/49/93 46/48/91 154/182/92 155/183/94
f 48/50/95 47/49/93 155/183/94 156/184/96
f 49/51/97 48/50/95 156/184/96 157/185/98
f 50/52/99 49/51/97 157/185/98 158/186/100
f 51/53/101 50/52/99 158/186/100 159/187/102
f 52/54/103 51/53/101 159/187/102 160/188/104
f 53/55/105 52/54/103 160/188/104 161/189/106
f 54/56/107 53/55/105 161/189/106 162/190/108
f 37/57/74 54/56/107 162/190/108 145/173/75
s 2
f 56/79/109 55/77/110 91/115/111 92/117/112
f 57/80/113 56/79/109 92/117/112 93/118/114
f 58/81/115 57/80/113 93/118/114 94/119/116
f 59/82/117 58/81/115 94/119/116 95/120/118
f 60/83/119 59/82/117 95/120/118 96/121/120
f 61/84/121 60/83/119 96/121/120 97/122/122
f 62/85/123 61/84/121 97/122/122 98/123/124
f 63/86/125 62/85/123 98/123/124 99/124/126
f 64/87/127 63/86/125 99/124/126 100/125/128
f 65/88/129 64/87/127 100/125/128 101/126/130
f 66/89/131 65/88/129 101/126/130 102/127/132
f 67/90/133 66/89/131 102/127/132 103/128/134
f 68/91/135 67/90/133 103/128/134 104/129/136
f 69/92/137 68/91/135 104/129/136 105/130/138
f 70/93/139 69/92/137 105/130/138 106/131/140
f 71/94/141 70/93/139 106/131/140 107/132/142
f 72/95/143 71/94/141 107/132/142 108/133/144
f 55/78/110 72/95/143 108/133/144 91/116/111
f 74/98/40 73/96/39 55/77/110 56/79/109
f 75/99/42 74/98/40 56/79/109 57/80/113
f 76/100/44 75/99/42 57/80/113 58/81/115
f 77/101/46 76/100/44 58/81/115 59/82/117
f 78/102/48 77/101/46 59/82/117 60/83/119
f 79/103/50 78/102/48 60/83/119 61/84/121
f 80/104/52 79/103/50 61/84/121 62/85/123
f 81/105/54 80/104/52 62/85/123 63/86/125
f 82/106/56 81/105/54 63/86/125 64/87/127
f 83/107/58 82/106/56 64/87/127 65/88/129
f 84/108/60 83/107/58 65/88/129 66/89/131
f 85/109/62 84/108/60 66/89/131 67/90/133
f 86/110/64 85/109/62 67/90/133 68/91/135
f 87/111/66 86/110/64 68/91/135 69/92/137
f 88/112/68 87/111/66 69/92/137 70/93/139
f 89/113/70 88/112/68 70/93/139 71/94/141
f 90/114/72 89/113/70 71/94/141 72/95/143
f 73/97/39 90/114/72 72/95/143 55/78/110
f 92/117/112 91/115/111 37/39/145 38/40/146
f 93/118/114 92/117/112 38/40/146 39/41/147
f 94/119/116 93/118/114 39/41/147 40/42/148
f 95/120/118 94/119/116 40/42/148 41/43/149
f 96/121/120 95/120/118 41/43/149 42/44/150
f 97/122/122 96/121/120 42/44/150 43/45/151
f 98/123/124 97/122/122 43/45/151 44/46/152
f 99/124/126 98/123/124 44/46/152 45/47/153
f 100/125/128 99/124/126 45/47/153 46/48/154
f 101/126/130 100/125/128 46/48/154 47/49/155
f 102/127/132 101/126/130 47/49/155 48/50/156
f 103/128/134 102/127/132 48/50/156 49/51/157
f 104/129/136 103/128/134 49/51/157 50/52/158
f 105/130/138 104/129/136 50/52/158 51/53/159
f 106/131/140 105/130/138 51/53/159 52/54/160
f 107/132/142 106/131/140 52/54/160 53/55/161
f 108/133/144 107/132/142 53/55/161 54/56/162
f 91/116/111 108/133/144 54/56/162 37/57/145
s 3
f 110/136/163 109/134/164 127/153/165 128/155/166
f 111/137/167 110/136/163 128/155/166 129/156/168
f 112/138/169 111/137/167 129/156/168 130/157/170
f 113/139/171 112/138/169 130/157/170 131/158/172
f 114/140/173 113/139/171 131/158/172 132/159/174
f 115/141/175 114/140/173 132/159/174 133/160/176
f 116/142/177 115/141/175 133/160/176 134/161/178
f 117/143/179 116/142/177 134/161/178 135/162/180
f 118/144/181 117/143/179 135/162/180 136/163/182
f 119/145/183 118/144/181 136/163/182 137/164/184
f 120/146/185 119/145/183 137/164/184 138/165/186
f 121/147/187 120/146/185 138/165/186 139/166/188
f 122/148/189 121/147/187 139/166/188 140/167/190
f 123/149/191 122/148/189 140/167/190 141/168/192
f 124/150/193 123/149/191 141/168/192 142/169/194
f 125/151/195 124/150/193 142/169/194 143/170/196
f 126/152/197 125/151/195 143/170/196 144/171/198
f 109/135/164 126/152/197 144/171/198 127/154/165
f 128/155/166 127/153/165 1/58/199 2/59/200
f 129/156/168 128/155/166 2/59/200 3/60/201
f 130/157/170 129/156/168 3/60/201 4/61/202
f 131/158/172 130/157/170 4/61/202 5/62/203
f 132/159/174 131/158/172 5/62/203 6/63/204
f 133/160/176 132/159/174 6/63/204 7/64/205
f 134/161/178 133/160/176 7/64/205 8/65/206
f 135/162/180 134/161/178 8/65/206 9/66/207
f 136/163/182 135/162/180 9/66/207 10/67/208
f 137/164/184 136/163/182 10/67/208 11/68/209
f 138/165/186 137/164/184 11/68/209 12/69/210
f 139/166/188 138/165/186 12/69/210 13/70/211
f 140/167/190 139/166/188 13/70/211 14/71/212
f 141/168/192 140/167/190 14/71/212 15/72/213
f 142/169/194 141/168/192 15/72/213 16/73/214
f 143/170/196 142/169/194 16/73/214 17/74/215
f 144/171/198 143/170/196 17/74/215 18/75/216
f 127/154/165 144/171/198 18/75/216 1/76/199
f 146/174/76 145/172/75 109/134/164 110/136/163
f 147/175/78 146/174/76 110/136/163 111/137/167
f 148/176/80 147/175/78 111/137/167 112/138/169
f 149/177/82 148/176/80 112/138/169 113/139/171
f 150/178/84 149/177/82 113/139/171 114/140/173
f 151/179/86 150/178/84 114/140/173 115/141/175
f 152/180/88 151/179/86 115/141/175 116/142/177
f 153/181/90 152/180/88 116/142/177 117/143/179
f 154/182/92 153/181/90 117/143/179 118/144/181
f 155/183/94 154/182/92 118/144/181 119/145/183
f 156/184/96 155/183/94 119/145/183 120/146/185
f 157/185/98 156/184/96 120/146/185 121/147/187
f 158/186/100 157/185/98 121/147/187 122/148/189
f 159/187/102 158/186/100 122/148/189 123/149/191
f 160/188/104 159/187/102 123/149/191 124/150/193
f 161/189/106 160/188/104 124/150/193 125/151/195
f 162/190/108 161/189/106 125/151/195 126/152/197
f 145/173/75 162/190/108 126/152/197 109/135/164
s 1
f 164/193/217 163/191/218 181/210/219 182/212/220
f 165/194/221 164/193/217 182/212/220 183/213/222
f 166/195/223 165/194/221 183/213/222 184/214/224
f 167/196/225 166/195/223 184/214/224 185/215/226
f 168/197/227 167/196/225 185/215/226 186/216/228
f 169/198/229 168/197/227 186/216/228 187/217/230
f 170/199/231 169/198/229 187/217/230 188/218/232
f 171/200/233 170/199/231 188/218/232 189/219/234
f 172/201/235 171/200/233 189/219/234 190/220/236
f 173/202/237 172/201/235 190/220/236 191/221/238
f 174/203/239 173/202/237 191/221/238 192/222/240
f 175/204/241 174/203/239 192/222/240 193/223/242
f 176/205/243 175/204/241 193/223/242 194/224/244
f 177/206/245 176/205/243 194/224/244 195/225/246
f 178/207/247 177/206/245 195/225/246 196/226/248
f 179/208/249 178/207/247 196/226/248 197/227/250
f 180/209/251 179/208/249 197/227/250 198/228/252
f 163/192/218 180/209/251 198/228/252 181/211/219
f 182/212/220 181/210/219 19/20/253 20/21/254
f 183/213/222 182/212/220 20/21/254 21/22/255
f 184/214/224 183/213/222 21/22/255 22/23/256
f 185/215/226 184/214/224 22/23/256 23/24/257
f 186/216/228 185/215/226 23/24/257 24/25/258
f 187/217/230 186/216/228 24/25/258 25/26/259
f 188/218/232 187/217/230 25/26/259 26/27/260
f 189/219/234 188/218/232 26/27/260 27/28/261
f 190/220/236 189/219/234 27/28/261 28/29/262
f 191/221/238 190/220/236 28/29/262 29/30/263
f 192/222/240 191/221/238 29/30/263 30/31/264
f 193/223/242 192/222/240 30/31/264 31/32/265
f 194/224/244 193/223/242 31/32/265 32/33/266
f 195/225/246 194/224/244 32/33/266 33/34/267
f 196/226/248 195/225/246 33/34/267 34/35/268
f 197/227/250 196/226/248 34/35/268 35/36/269
f 198/228/252 197/227/250 35/36/269 36/37/270
f 181/211/219 198/228/252 36/37/270 19/38/253
f 200/231/4 199/229/3 163/191/218 164/193/217
f 201/232/6 200/231/4 164/193/217 165/194/221
f 202/233/8 201/232/6 165/194/221 166/195/223
f 203/234/10 202/233/8 166/195/223 167/196/225
f 204/235/12 203/234/10 167/196/225 168/197/227
f 205/236/14 204/235/12 168/197/227 169/198/229
f 206/237/16 205/236/14 169/198/229 170/199/231
f 207/238/18 206/237/16 170/199/231 171/200/233
f 208/239/20 207/238/18 171/200/233 172/201/235
f 209/240/22 208/239/20 172/201/235 173/202/237
f 210/241/24 209/240/22 173/202/237 174/203/239
f 211/242/26 210/241/24 174/203/239 175/204/241
f 212/243/28 211/242/26 175/204/241 176/205/243
f 213/244/30 212/243/28 176/205/243 177/206/245
f 214/245/32 213/244/30 177/206/245 178/207/247
f 215/246/34 214/245/32 178/207/247 179/208/249
f 216/247/36 215/246/34 179/208/249 180/209/251
f 199/230/3 216/247/36 180/209/251 163/192/218
g default
v -0.144373 -0.072132 0.144373
v 0.144373 -0.072132 0.144373
v -0.144373 -0.072132 -0.144373
v 0.144373 -0.072132 -0.144373
v -0.177865 -0.038640 0.000000
v 0.177865 -0.216505 -0.177865
v -0.177865 -0.216505 -0.177865
v 0.177865 -0.216505 0.177865
v -0.000000 -0.038640 0.177865
v -0.177865 -0.216505 0.177865
v 0.177865 -0.038640 -0.000000
v -0.000000 -0.038640 -0.177865
v 0.000000 -0.216505 0.244441
v 0.000000 0.027936 -0.000000
v 0.000000 -0.216505 -0.244441
v 0.244441 -0.216505 -0.000000
v -0.244441 -0.216505 0.000000
v 0.091813 -0.124693 0.212272
v -0.091813 -0.124693 0.212272
v -0.091813 -0.004233 0.091813
v 0.091813 -0.004233 0.091813
v 0.091813 -0.004233 -0.091813
v -0.091813 -0.004233 -0.091813
v -0.091813 -0.124693 -0.212272
v 0.091813 -0.124693 -0.212272
v 0.212272 -0.124693 -0.091813
v 0.212272 -0.124693 0.091813
v -0.212272 -0.124693 0.091813
v -0.212272 -0.124693 -0.091813
v 0.097147 -0.216505 0.227739
v -0.000000 -0.119358 0.227739
v -0.097147 -0.216505 0.227739
v 0.000000 0.011233 0.097147
v 0.097147 0.011233 0.000000
v -0.000000 0.011233 -0.097147
v -0.097147 0.011233 0.000000
v 0.000000 -0.119358 -0.227739
v 0.097147 -0.216505 -0.227739
v -0.097147 -0.216505 -0.227739
v 0.227739 -0.216505 -0.097147
v 0.227739 -0.119358 -0.000000
v 0.227739 -0.216505 0.097147
v -0.227739 -0.216505 0.097147
v -0.227739 -0.119358 0.000000
v -0.227739 -0.216505 -0.097147
v 0.166824 -0.130845 0.166824
v 0.085661 -0.049682 0.166824
v -0.085661 -0.049682 0.166824
v -0.166824 -0.130845 0.166824
v 0.166824 -0.049682 0.085661
v 0.166824 -0.049682 -0.085661
v 0.085661 -0.049682 -0.166824
v -0.085661 -0.049682 -0.166824
v -0.166824 -0.049682 -0.085661
v -0.166824 -0.049682 0.085661
v 0.166824 -0.130845 -0.166824
v -0.166824 -0.130845 -0.166824
v 0.048726 -0.167779 0.236133
v 0.138119 -0.171278 0.203337
v 0.124980 -0.091526 0.177829
v 0.045228 -0.078386 0.203337
v -0.138119 -0.171278 0.203337
v -0.048726 -0.167779 0.236133
v -0.045228 -0.078386 0.203337
v -0.124980 -0.091526 0.177829
v -0.124980 -0.038677 0.124980
v -0.045228 -0.013169 0.138119
v -0.048726 0.019628 0.048726
v -0.138119 -0.013169 0.045228
v 0.045228 -0.013169 0.138119
v 0.124980 -0.038677 0.124980
v 0.138119 -0.013169 0.045228
v 0.048726 0.019628 0.048726
v 0.048726 0.019628 -0.048726
v 0.138119 -0.013169 -0.045228
v 0.124980 -0.038677 -0.124980
v 0.045228 -0.013169 -0.138119
v -0.138119 -0.013169 -0.045228
v -0.048726 0.019628 -0.048726
v -0.045228 -0.013169 -0.138119
v -0.124980 -0.038677 -0.124980
v -0.124980 -0.091526 -0.177829
v -0.045228 -0.078386 -0.203337
v -0.048726 -0.167779 -0.236133
v -0.138119 -0.171278 -0.203337
v 0.045228 -0.078386 -0.203337
v 0.124980 -0.091526 -0.177829
v 0.138119 -0.171278 -0.203337
v 0.048726 -0.167779 -0.236133
v 0.236133 -0.167779 -0.048726
v 0.203337 -0.171278 -0.138119
v 0.177829 -0.091526 -0.124980
v 0.203337 -0.078386 -0.045228
v 0.203337 -0.171278 0.138119
v 0.236133 -0.167779 0.048726
v 0.203337 -0.078386 0.045228
v 0.177829 -0.091526 0.124980
v -0.236133 -0.167779 0.048726
v -0.203337 -0.171278 0.138119
v -0.177829 -0.091526 0.124980
v -0.203337 -0.078386 0.045228
v -0.203337 -0.171278 -0.138119
v -0.236133 -0.167779 -0.048726
v -0.203337 -0.078386 -0.045228
v -0.177829 -0.091526 -0.124980
v 0.095437 -0.169529 0.223811
v 0.132367 -0.128726 0.193368
v 0.087779 -0.084139 0.193368
v 0.046977 -0.121068 0.223811
v -0.095437 -0.169529 0.223811
v -0.046977 -0.121068 0.223811
v -0.087779 -0.084139 0.193368
v -0.132367 -0.128726 0.193368
v -0.087779 -0.023138 0.132367
v -0.046977 0.007306 0.095437
v -0.095437 0.007306 0.046977
v -0.132367 -0.023138 0.087779
v 0.087779 -0.023138 0.132367
v 0.132367 -0.023138 0.087779
v 0.095437 0.007306 0.046977
v 0.046977 0.007306 0.095437
v 0.095437 0.007306 -0.046977
v 0.132367 -0.023138 -0.087779
v 0.087779 -0.023138 -0.132367
v 0.046977 0.007306 -0.095437
v -0.095437 0.007306 -0.046977
v -0.046977 0.007306 -0.095437
v -0.087779 -0.023138 -0.132367
v -0.132367 -0.023138 -0.087779
v -0.087779 -0.084139 -0.193368
v -0.046977 -0.121068 -0.223811
v -0.095437 -0.169529 -0.223811
v -0.132367 -0.128726 -0.193368
v 0.087779 -0.084139 -0.193368
v 0.132367 -0.128726 -0.193368
v 0.095437 -0.169529 -0.223811
v 0.046977 -0.121068 -0.223811
v 0.223811 -0.169529 -0.095437
v 0.193368 -0.128726 -0.132367
v 0.193368 -0.084139 -0.087779
v 0.223811 -0.121068 -0.046977
v 0.223811 -0.169529 0.095437
v 0.223811 -0.121068 0.046977
v 0.193368 -0.084139 0.087779
v 0.193368 -0.128726 0.132367
v -0.223811 -0.169529 0.095437
v -0.193368 -0.128726 0.132367
v -0.193368 -0.084139 0.087779
v -0.223811 -0.121068 0.046977
v -0.223811 -0.169529 -0.095437
v -0.223811 -0.121068 -0.046977
v -0.193368 -0.084139 -0.087779
v -0.193368 -0.128726 -0.132367
v 0.049600 -0.216505 0.240256
v 0.140587 -0.216505 0.206929
v 0.000000 -0.166905 0.240256
v 0.000000 -0.075919 0.206929
v -0.049600 -0.216505 0.240256
v -0.140587 -0.216505 0.206929
v 0.000000 0.023751 0.049600
v -0.000000 -0.009577 0.140587
v 0.049600 0.023751 0.000000
v 0.140587 -0.009577 0.000000
v 0.000000 0.023751 -0.049600
v 0.000000 -0.009577 -0.140587
v -0.049600 0.023751 0.000000
v -0.140587 -0.009577 0.000000
v 0.000000 -0.166905 -0.240256
v -0.000000 -0.075919 -0.206929
v 0.049600 -0.216505 -0.240256
v 0.140587 -0.216505 -0.206929
v -0.049600 -0.216505 -0.240256
v -0.140587 -0.216505 -0.206929
v 0.240256 -0.216505 -0.049600
v 0.206929 -0.216505 -0.140587
v 0.240256 -0.166905 -0.000000
v 0.206929 -0.075919 -0.000000
v 0.240256 -0.216505 0.049600
v 0.206929 -0.216505 0.140587
v -0.240256 -0.216505 0.049600
v -0.206929 -0.216505 0.140587
v -0.240256 -0.166905 0.000000
v -0.206929 -0.075919 0.000000
v -0.240256 -0.216505 -0.049600
v -0.206929 -0.216505 -0.140587
v 0.174757 -0.172152 0.174757
v 0.155454 -0.095628 0.155454
v 0.044353 -0.041748 0.174757
v 0.120878 -0.061051 0.155454
v -0.044353 -0.041748 0.174757
v -0.120878 -0.061051 0.155454
v -0.174757 -0.172152 0.174757
v -0.155454 -0.095628 0.155454
v 0.174757 -0.041748 0.044353
v 0.155454 -0.061051 0.120878
v 0.174757 -0.041748 -0.044353
v 0.155454 -0.061051 -0.120878
v 0.044353 -0.041748 -0.174757
v 0.120878 -0.061051 -0.155454
v -0.044353 -0.041748 -0.174757
v -0.120878 -0.061051 -0.155454
v -0.174757 -0.041748 -0.044353
v -0.155454 -0.061051 -0.120878
v -0.174757 -0.041748 0.044353
v -0.155454 -0.061051 0.120878
v 0.174757 -0.172152 -0.174757
v 0.155454 -0.095628 -0.155454
v -0.174757 -0.172152 -0.174757
v -0.155454 -0.095628 -0.155454
v 0.000000 -0.216505 -0.049600
v 0.000000 -0.216505 0.000000
v 0.000000 -0.216505 0.049600
v -0.049600 -0.216505 0.049600
v -0.049600 -0.216505 0.000000
v -0.049600 -0.216505 -0.049600
v 0.049600 -0.216505 -0.049600
v 0.049600 -0.216505 -0.000000
v 0.049600 -0.216505 0.049600
v 0.049600 -0.216505 0.097147
v 0.000000 -0.216505 0.097147
v -0.049600 -0.216505 0.097147
v -0.049600 -0.216505 -0.097147
v 0.000000 -0.216505 -0.097147
v 0.049600 -0.216505 -0.097147
v 0.097147 -0.216505 -0.097147
v 0.097147 -0.216505 -0.049600
v 0.097147 -0.216505 -0.000000
v 0.097147 -0.216505 0.049600
v 0.097147 -0.216505 0.097147
v -0.097147 -0.216505 0.097147
v -0.097147 -0.216505 0.049600
v -0.097147 -0.216505 0.000000
v -0.097147 -0.216505 -0.049600
v -0.097147 -0.216505 -0.097147
v -0.140587 -0.216505 -0.097147
v -0.140587 -0.216505 -0.049600
v -0.140587 -0.216505 0.000000
v -0.140587 -0.216505 0.049600
v -0.140587 -0.216505 0.097147
v 0.140587 -0.216505 0.097147
v 0.140587 -0.216505 0.049600
v 0.140587 -0.216505 -0.000000
v 0.140587 -0.216505 -0.049600
v 0.140587 -0.216505 -0.097147
v 0.140587 -0.216505 0.140587
v 0.097147 -0.216505 0.140587
v 0.049600 -0.216505 0.140587
v 0.000000 -0.216505 0.140587
v -0.049600 -0.216505 0.140587
v -0.097147 -0.216505 0.140587
v -0.140587 -0.216505 0.140587
v -0.140587 -0.216505 -0.140587
v -0.097147 -0.216505 -0.140587
v -0.049600 -0.216505 -0.140587
v 0.000000 -0.216505 -0.140587
v 0.049600 -0.216505 -0.140587
v 0.097147 -0.216505 -0.140587
v 0.140587 -0.216505 -0.140587
vt 0.375000 0.250000
vt 0.625000 0.250000
vt 0.375000 0.500000
vt 0.125000 0.250000
vt 0.625000 0.500000
vt 0.875000 0.250000
vt 0.500000 0.125000
vt 0.500000 0.375000
vt 0.500000 0.625000
vt 0.750000 0.125000
vt 0.250000 0.125000
vt 0.625000 0.125000
vt 0.500000 0.250000
vt 0.375000 0.125000
vt 0.625000 0.375000
vt 0.750000 0.250000
vt 0.500000 0.500000
vt 0.375000 0.375000
vt 0.250000 0.250000
vt 0.625000 0.625000
vt 0.875000 0.125000
vt 0.375000 0.625000
vt 0.125000 0.125000
vt 0.562500 0.187500
vt 0.437500 0.187500
vt 0.437500 0.312500
vt 0.562500 0.312500
vt 0.562500 0.437500
vt 0.437500 0.437500
vt 0.437500 0.562500
vt 0.562500 0.562500
vt 0.812500 0.187500
vt 0.687500 0.187500
vt 0.312500 0.187500
vt 0.187500 0.187500
vt 0.562500 0.125000
vt 0.500000 0.187500
vt 0.437500 0.125000
vt 0.500000 0.312500
vt 0.562500 0.375000
vt 0.500000 0.437500
vt 0.437500 0.375000
vt 0.500000 0.562500
vt 0.562500 0.625000
vt 0.437500 0.625000
vt 0.812500 0.125000
vt 0.750000 0.187500
vt 0.687500 0.125000
vt 0.312500 0.125000
vt 0.250000 0.187500
vt 0.187500 0.125000
vt 0.625000 0.187500
vt 0.562500 0.250000
vt 0.437500 0.250000
vt 0.375000 0.187500
vt 0.625000 0.312500
vt 0.687500 0.250000
vt 0.625000 0.437500
vt 0.812500 0.250000
vt 0.562500 0.500000
vt 0.437500 0.500000
vt 0.375000 0.437500
vt 0.187500 0.250000
vt 0.375000 0.312500
vt 0.312500 0.250000
vt 0.625000 0.562500
vt 0.875000 0.187500
vt 0.375000 0.562500
vt 0.125000 0.187500
vt 0.531250 0.156250
vt 0.593750 0.156250
vt 0.593750 0.218750
vt 0.531250 0.218750
vt 0.406250 0.156250
vt 0.468750 0.156250
vt 0.468750 0.218750
vt 0.406250 0.218750
vt 0.406250 0.281250
vt 0.468750 0.281250
vt 0.468750 0.343750
vt 0.406250 0.343750
vt 0.531250 0.281250
vt 0.593750 0.281250
vt 0.593750 0.343750
vt 0.531250 0.343750
vt 0.531250 0.406250
vt 0.593750 0.406250
vt 0.593750 0.468750
vt 0.531250 0.468750
vt 0.406250 0.406250
vt 0.468750 0.406250
vt 0.468750 0.468750
vt 0.406250 0.468750
vt 0.406250 0.531250
vt 0.468750 0.531250
vt 0.468750 0.593750
vt 0.406250 0.593750
vt 0.531250 0.531250
vt 0.593750 0.531250
vt 0.593750 0.593750
vt 0.531250 0.593750
vt 0.781250 0.156250
vt 0.843750 0.156250
vt 0.843750 0.218750
vt 0.781250 0.218750
vt 0.656250 0.156250
vt 0.718750 0.156250
vt 0.718750 0.218750
vt 0.656250 0.218750
vt 0.281250 0.156250
vt 0.343750 0.156250
vt 0.343750 0.218750
vt 0.281250 0.218750
vt 0.156250 0.156250
vt 0.218750 0.156250
vt 0.218750 0.218750
vt 0.156250 0.218750
vt 0.562500 0.156250
vt 0.593750 0.187500
vt 0.562500 0.218750
vt 0.531250 0.187500
vt 0.437500 0.156250
vt 0.468750 0.187500
vt 0.437500 0.218750
vt 0.406250 0.187500
vt 0.437500 0.281250
vt 0.468750 0.312500
vt 0.437500 0.343750
vt 0.406250 0.312500
vt 0.562500 0.281250
vt 0.593750 0.312500
vt 0.562500 0.343750
vt 0.531250 0.312500
vt 0.562500 0.406250
vt 0.593750 0.437500
vt 0.562500 0.468750
vt 0.531250 0.437500
vt 0.437500 0.406250
vt 0.468750 0.437500
vt 0.437500 0.468750
vt 0.406250 0.437500
vt 0.437500 0.531250
vt 0.468750 0.562500
vt 0.437500 0.593750
vt 0.406250 0.562500
vt 0.562500 0.531250
vt 0.593750 0.562500
vt 0.562500 0.593750
vt 0.531250 0.562500
vt 0.812500 0.156250
vt 0.843750 0.187500
vt 0.812500 0.218750
vt 0.781250 0.187500
vt 0.687500 0.156250
vt 0.718750 0.187500
vt 0.687500 0.218750
vt 0.656250 0.187500
vt 0.312500 0.156250
vt 0.343750 0.187500
vt 0.312500 0.218750
vt 0.281250 0.187500
vt 0.187500 0.156250
vt 0.218750 0.187500
vt 0.187500 0.218750
vt 0.156250 0.187500
vt 0.531250 0.125000
vt 0.593750 0.125000
vt 0.500000 0.156250
vt 0.500000 0.218750
vt 0.468750 0.125000
vt 0.406250 0.125000
vt 0.500000 0.343750
vt 0.500000 0.281250
vt 0.531250 0.375000
vt 0.593750 0.375000
vt 0.500000 0.406250
vt 0.500000 0.468750
vt 0.468750 0.375000
vt 0.406250 0.375000
vt 0.500000 0.593750
vt 0.500000 0.531250
vt 0.531250 0.625000
vt 0.593750 0.625000
vt 0.468750 0.625000
vt 0.406250 0.625000
vt 0.781250 0.125000
vt 0.843750 0.125000
vt 0.750000 0.156250
vt 0.750000 0.218750
vt 0.718750 0.125000
vt 0.656250 0.125000
vt 0.281250 0.125000
vt 0.343750 0.125000
vt 0.250000 0.156250
vt 0.250000 0.218750
vt 0.218750 0.125000
vt 0.156250 0.125000
vt 0.625000 0.156250
vt 0.625000 0.218750
vt 0.531250 0.250000
vt 0.593750 0.250000
vt 0.468750 0.250000
vt 0.406250 0.250000
vt 0.375000 0.156250
vt 0.375000 0.218750
vt 0.625000 0.343750
vt 0.718750 0.250000
vt 0.625000 0.281250
vt 0.656250 0.250000
vt 0.625000 0.406250
vt 0.781250 0.250000
vt 0.625000 0.468750
vt 0.843750 0.250000
vt 0.531250 0.500000
vt 0.593750 0.500000
vt 0.468750 0.500000
vt 0.406250 0.500000
vt 0.375000 0.406250
vt 0.218750 0.250000
vt 0.375000 0.468750
vt 0.156250 0.250000
vt 0.375000 0.343750
vt 0.281250 0.250000
vt 0.375000 0.281250
vt 0.343750 0.250000
vt 0.625000 0.593750
vt 0.875000 0.156250
vt 0.625000 0.531250
vt 0.875000 0.218750
vt 0.375000 0.593750
vt 0.125000 0.156250
vt 0.375000 0.531250
vt 0.125000 0.218750
vt 0.500000 0.125000
vt 0.500000 0.125000
vt 0.500000 0.125000
vt 0.454839 0.125000
vt 0.449272 0.125000
vt 0.441936 0.125000
vt 0.558064 0.125000
vt 0.550728 0.125000
vt 0.545161 0.125000
vt 0.541691 0.125000
vt 0.500000 0.125000
vt 0.458309 0.125000
vt 0.448623 0.249693
vt 0.500000 0.247014
vt 0.551377 0.249693
vt 0.621073 0.216411
vt 0.613723 0.125000
vt 0.599356 0.125000
vt 0.588451 0.125000
vt 0.580609 0.125000
vt 0.419391 0.125000
vt 0.411549 0.125000
vt 0.400644 0.125000
vt 0.386277 0.125000
vt 0.378927 0.216411
vt 0.315252 0.186005
vt 0.335426 0.125000
vt 0.356216 0.125000
vt 0.371998 0.125000
vt 0.383835 0.125000
vt 0.616165 0.125000
vt 0.628002 0.125000
vt 0.643784 0.125000
vt 0.664574 0.125000
vt 0.684748 0.186005
vt 0.607296 0.125000
vt 0.574585 0.125000
vt 0.538522 0.125000
vt 0.500000 0.125000
vt 0.461478 0.125000
vt 0.425415 0.125000
vt 0.392704 0.125000
vt 0.351259 0.359710
vt 0.398411 0.352323
vt 0.454733 0.363614
vt 0.500000 0.358488
vt 0.545267 0.363614
vt 0.601589 0.352323
vt 0.648741 0.359710
vn -0.000000 0.084948 0.996385
vn 0.169152 0.086565 0.981781
vn 0.170583 0.170583 0.970465
vn 0.000000 0.169789 0.985480
vn 0.342949 0.090656 0.934969
vn 0.342552 0.172616 0.923505
vn 0.337959 0.337959 0.878389
vn 0.172616 0.342552 0.923505
vn -0.000000 0.344367 0.938835
vn 0.523472 0.095267 0.846700
vn 0.519728 0.174230 0.836377
vn 0.703736 0.097517 0.703737
vn 0.696231 0.174714 0.696231
vn 0.668221 0.327049 0.668221
vn 0.504570 0.330991 0.797405
vn 0.479663 0.479663 0.734742
vn 0.330991 0.504570 0.797405
vn 0.627391 0.461261 0.627391
vn 0.577350 0.577350 0.577350
vn 0.461261 0.627391 0.627391
vn 0.327049 0.668221 0.668221
vn 0.174230 0.519728 0.836377
vn 0.000000 0.525864 0.850568
vn 0.174714 0.696231 0.696231
vn -0.000000 0.707107 0.707107
vn -0.703737 0.097517 0.703737
vn -0.523472 0.095267 0.846700
vn -0.519728 0.174230 0.836377
vn -0.696231 0.174714 0.696231
vn -0.342949 0.090656 0.934969
vn -0.342552 0.172616 0.923505
vn -0.337959 0.337959 0.878389
vn -0.504570 0.330991 0.797405
vn -0.668221 0.327049 0.668221
vn -0.169152 0.086566 0.981781
vn -0.170583 0.170583 0.970465
vn -0.172616 0.342552 0.923505
vn -0.174230 0.519728 0.836377
vn -0.330991 0.504569 0.797405
vn -0.174714 0.696231 0.696231
vn -0.327049 0.668221 0.668221
vn -0.479663 0.479663 0.734743
vn -0.627391 0.461261 0.627391
vn -0.461261 0.627391 0.627391
vn -0.577350 0.577350 0.577350
vn -0.479663 0.734743 0.479663
vn -0.627391 0.627391 0.461261
vn -0.330991 0.797405 0.504570
vn -0.337959 0.878389 0.337959
vn -0.504570 0.797405 0.330991
vn -0.668221 0.668221 0.327049
vn -0.174230 0.836377 0.519728
vn 0.000000 0.850568 0.525864
vn 0.000000 0.938835 0.344367
vn -0.172616 0.923505 0.342552
vn -0.170583 0.970465 0.170583
vn -0.342552 0.923505 0.172616
vn 0.000000 0.985480 0.169789
vn 0.000000 1.000000 0.000000
vn -0.169789 0.985480 -0.000000
vn -0.344367 0.938835 -0.000000
vn -0.519728 0.836377 0.174230
vn -0.696231 0.696231 0.174714
vn -0.525864 0.850568 0.000000
vn -0.707107 0.707107 0.000000
vn 0.174230 0.836377 0.519728
vn 0.330991 0.797405 0.504570
vn 0.337959 0.878389 0.337959
vn 0.172616 0.923505 0.342552
vn 0.479663 0.734742 0.479663
vn 0.627391 0.627391 0.461261
vn 0.668221 0.668221 0.327049
vn 0.504570 0.797405 0.330991
vn 0.519728 0.836377 0.174230
vn 0.342552 0.923505 0.172616
vn 0.696231 0.696231 0.174714
vn 0.707107 0.707107 -0.000000
vn 0.525864 0.850568 0.000000
vn 0.344367 0.938835 0.000000
vn 0.170583 0.970465 0.170583
vn 0.169789 0.985480 0.000000
vn 0.170583 0.970465 -0.170583
vn -0.000000 0.985481 -0.169789
vn 0.342552 0.923505 -0.172616
vn 0.337959 0.878389 -0.337959
vn 0.172616 0.923505 -0.342552
vn -0.000000 0.938835 -0.344367
vn 0.519728 0.836377 -0.174230
vn 0.696231 0.696231 -0.174714
vn 0.668221 0.668221 -0.327049
vn 0.504570 0.797405 -0.330991
vn 0.479663 0.734742 -0.479663
vn 0.330991 0.797405 -0.504570
vn 0.627391 0.627391 -0.461261
vn 0.577350 0.577350 -0.577350
vn 0.461261 0.627391 -0.627391
vn 0.327049 0.668221 -0.668221
vn 0.174230 0.836377 -0.519728
vn -0.000000 0.850568 -0.525864
vn 0.174714 0.696231 -0.696231
vn -0.000000 0.707107 -0.707107
vn -0.519728 0.836377 -0.174230
vn -0.696231 0.696231 -0.174714
vn -0.342552 0.923505 -0.172616
vn -0.337959 0.878389 -0.337959
vn -0.504570 0.797405 -0.330991
vn -0.668221 0.668221 -0.327049
vn -0.170583 0.970465 -0.170583
vn -0.172616 0.923505 -0.342552
vn -0.174230 0.836377 -0.519728
vn -0.330991 0.797405 -0.504570
vn -0.174714 0.696231 -0.696231
vn -0.327049 0.668221 -0.668221
vn -0.479663 0.734742 -0.479663
vn -0.627391 0.627391 -0.461261
vn -0.461261 0.627391 -0.627391
vn -0.577350 0.577350 -0.577350
vn -0.479663 0.479663 -0.734742
vn -0.627391 0.461261 -0.627391
vn -0.330991 0.504570 -0.797405
vn -0.337959 0.337959 -0.878389
vn -0.504570 0.330991 -0.797405
vn -0.668221 0.327049 -0.668221
vn -0.174230 0.519728 -0.836377
vn 0.000000 0.525864 -0.850568
vn 0.000000 0.344367 -0.938835
vn -0.172616 0.342552 -0.923505
vn -0.170583 0.170583 -0.970465
vn -0.342552 0.172616 -0.923505
vn -0.000000 0.169789 -0.985480
vn -0.000000 0.084948 -0.996385
vn -0.169152 0.086566 -0.981781
vn -0.342949 0.090656 -0.934969
vn -0.519728 0.174230 -0.836377
vn -0.696231 0.174714 -0.696231
vn -0.523472 0.095267 -0.846700
vn -0.703736 0.097517 -0.703737
vn 0.174230 0.519728 -0.836377
vn 0.330991 0.504570 -0.797405
vn 0.337959 0.337959 -0.878389
vn 0.172616 0.342552 -0.923505
vn 0.479663 0.479663 -0.734742
vn 0.627391 0.461261 -0.627391
vn 0.668221 0.327049 -0.668221
vn 0.504570 0.330991 -0.797405
vn 0.519728 0.174230 -0.836377
vn 0.342552 0.172616 -0.923505
vn 0.696231 0.174714 -0.696231
vn 0.703737 0.097517 -0.703737
vn 0.523472 0.095267 -0.846700
vn 0.342949 0.090656 -0.934969
vn 0.170583 0.170583 -0.970465
vn 0.169152 0.086566 -0.981781
vn 0.996385 0.084949 -0.000000
vn 0.981781 0.086566 -0.169152
vn 0.970465 0.170583 -0.170583
vn 0.985481 0.169789 0.000000
vn 0.934969 0.090656 -0.342949
vn 0.923505 0.172616 -0.342552
vn 0.878389 0.337959 -0.337959
vn 0.923505 0.342552 -0.172616
vn 0.938835 0.344367 0.000000
vn 0.846700 0.095267 -0.523473
vn 0.836377 0.174230 -0.519728
vn 0.797405 0.330991 -0.504570
vn 0.734742 0.479663 -0.479663
vn 0.797405 0.504570 -0.330991
vn 0.836377 0.519728 -0.174230
vn 0.850568 0.525865 0.000000
vn 0.846700 0.095267 0.523473
vn 0.836377 0.174230 0.519728
vn 0.934969 0.090656 0.342949
vn 0.923505 0.172616 0.342552
vn 0.878389 0.337959 0.337959
vn 0.797405 0.330991 0.504570
vn 0.981781 0.086566 0.169152
vn 0.970465 0.170583 0.170583
vn 0.923505 0.342552 0.172616
vn 0.836377 0.519728 0.174230
vn 0.797405 0.504569 0.330991
vn 0.734743 0.479663 0.479663
vn -0.996385 0.084949 0.000000
vn -0.981781 0.086566 0.169152
vn -0.970465 0.170583 0.170583
vn -0.985481 0.169789 -0.000000
vn -0.934969 0.090656 0.342949
vn -0.923505 0.172616 0.342552
vn -0.878389 0.337959 0.337959
vn -0.923505 0.342552 0.172616
vn -0.938835 0.344367 -0.000000
vn -0.846700 0.095267 0.523473
vn -0.836377 0.174230 0.519728
vn -0.797405 0.330991 0.504570
vn -0.734742 0.479663 0.479663
vn -0.797405 0.504570 0.330991
vn -0.836377 0.519728 0.174230
vn -0.850568 0.525864 -0.000000
vn -0.846700 0.095267 -0.523473
vn -0.836377 0.174230 -0.519728
vn -0.934969 0.090656 -0.342949
vn -0.923505 0.172616 -0.342552
vn -0.878389 0.337959 -0.337959
vn -0.797405 0.330991 -0.504570
vn -0.981781 0.086566 -0.169152
vn -0.970465 0.170583 -0.170583
vn -0.923505 0.342552 -0.172616
vn -0.836377 0.519728 -0.174230
vn -0.797405 0.504570 -0.330991
vn -0.734742 0.479663 -0.479663
vn 0.000000 -1.000000 0.000000
vn 0.000000 -1.000000 -0.000000
vn 0.000000 -1.000000 -0.000000
vn 0.000000 -1.000000 0.000000
vn 0.000000 -1.000000 -0.000000
vn -0.000000 -1.000000 -0.000000
vn -0.000000 -1.000000 0.000000
vn 0.000000 -1.000000 0.000000
vn 0.000000 -1.000000 0.000000
vn 0.000000 -1.000000 0.000000
vn -0.000000 -1.000000 0.000000
vn -0.000000 -1.000000 0.000000
vn -0.000000 -1.000000 0.000000
vn 0.000000 -1.000000 0.000000
vn -0.000000 -1.000000 0.000000
vn -0.000000 -1.000000 0.000000
vn -0.000000 -1.000000 0.000000
vn -0.000000 -1.000000 -0.000000
vn 0.000000 -1.000000 0.000000
vn 0.000000 -1.000000 -0.000000
vn 0.000000 -1.000000 -0.000000
vn 0.000000 -1.000000 -0.000000
vn 0.000000 -1.000000 0.000000
vn 0.000000 -1.000000 0.000000
vn 0.000000 -1.000000 -0.000000
vn 0.000000 -1.000000 0.000000
vn -0.000000 -1.000000 0.000000
vn -0.000000 -1.000000 0.000000
vn 0.000000 -1.000000 0.000000
vn 0.000000 -1.000000 -0.000000
vn 0.000000 -1.000000 -0.000000
vn 0.000000 -1.000000 -0.000000
vn 0.000000 -1.000000 -0.000000
vn 0.000000 -1.000000 -0.000000
vn -0.000000 -1.000000 0.000000
vn 0.000000 -1.000000 -0.000000
vn 0.000000 -1.000000 -0.000000
vn 0.000000 -1.000000 0.000000
vn 0.000000 -1.000000 0.000000
vn 0.000000 -1.000000 0.000000
vn 0.000000 -1.000000 -0.000000
vn 0.000000 -1.000000 0.000000
vn 0.000000 -1.000000 0.000000
vn 0.000000 -1.000000 -0.000000
vn 0.000000 -1.000000 -0.000000
vn 0.000000 -1.000000 -0.000000
vn 0.000000 -1.000000 -0.000000
vn 0.000000 -1.000000 0.000000
vn 0.000000 -1.000000 0.000000
vn -0.000000 -1.000000 0.000000
vn 0.000000 -1.000000 0.000000
vn 0.000000 -1.000000 0.000000
vn -0.000000 -1.000000 0.000000
vn -0.000000 -1.000000 0.000000
vn -0.000000 -1.000000 -0.000000
vn -0.000000 -1.000000 -0.000000
vn -0.000000 -1.000000 -0.000000
vn 0.000000 -1.000000 -0.000000
vn 0.000000 -1.000000 0.000000
vn 0.000000 -1.000000 -0.000000
vn 0.000000 -1.000000 -0.000000
vn 0.000000 -1.000000 -0.000000
vn 0.000000 -1.000000 0.000000
vn 0.000000 -1.000000 0.000000
vn 0.000000 -1.000000 0.000000
vn 0.000000 -1.000000 0.000000
vn -0.000000 -1.000000 0.000000
vn -0.000000 -1.000000 0.000000
vn 0.000000 -1.000000 0.000000
vn 0.000000 -1.000000 -0.000000
vn 0.000000 -1.000000 -0.000000
vn 0.000000 -1.000000 -0.000000
vn 0.000000 -1.000000 0.000000
vn 0.000000 -1.000000 0.000000
vn 0.000000 -1.000000 0.000000
vn 0.000000 -1.000000 0.000000
vn 0.000000 -1.000000 0.000000
vn 0.000000 -1.000000 -0.000000
vn -0.000000 -1.000000 -0.000000
vn 0.000000 -1.000000 0.000000
vn 0.000000 -1.000000 0.000000
s 1
g Geo_Grp Camera_marker CenterDot
usemtl initialShadingGroup
f 229/254/271 370/413/272 274/317/273 372/415/274
f 370/413/272 246/283/275 322/365/276 274/317/273
f 274/317/273 322/365/276 234/271/277 325/368/278
f 372/415/274 274/317/273 325/368/278 247/284/279
f 246/283/275 371/414/280 275/318/281 322/365/276
f 371/414/280 224/259/282 402/445/283 275/318/281
f 275/318/281 402/445/283 262/299/284 323/366/285
f 322/365/276 275/318/281 323/366/285 234/271/277
f 234/271/277 323/366/285 276/319/286 324/367/287
f 323/366/285 262/299/284 403/446/288 276/319/286
f 276/319/286 403/446/288 218/249/289 405/448/290
f 324/367/287 276/319/286 405/448/290 263/300/291
f 247/284/279 325/368/278 277/320/292 373/416/293
f 325/368/278 234/271/277 324/367/287 277/320/292
f 277/320/292 324/367/287 263/300/291 404/447/294
f 373/416/293 277/320/292 404/447/294 225/260/295
f 226/261/296 375/418/297 278/321/298 408/451/299
f 375/418/297 248/285/300 326/369/301 278/321/298
f 278/321/298 326/369/301 235/272/302 329/372/303
f 408/451/299 278/321/298 329/372/303 265/302/304
f 248/285/300 374/417/305 279/322/306 326/369/301
f 374/417/305 229/254/271 372/415/274 279/322/306
f 279/322/306 372/415/274 247/284/279 327/370/307
f 326/369/301 279/322/306 327/370/307 235/272/302
f 235/272/302 327/370/307 280/323/308 328/371/309
f 327/370/307 247/284/279 373/416/293 280/323/308
f 280/323/308 373/416/293 225/260/295 406/449/310
f 328/371/309 280/323/308 406/449/310 264/301/311
f 265/302/304 329/372/303 281/324/312 409/452/313
f 329/372/303 235/272/302 328/371/309 281/324/312
f 281/324/312 328/371/309 264/301/311 407/450/314
f 409/452/313 281/324/312 407/450/314 217/248/315
f 217/248/315 407/450/314 282/325/316 421/471/317
f 407/450/314 264/301/311 330/373/318 282/325/316
f 282/325/316 330/373/318 236/273/319 333/376/320
f 421/471/317 282/325/316 333/376/320 271/311/321
f 264/301/311 406/449/310 283/326/322 330/373/318
f 406/449/310 225/260/295 377/420/323 283/326/322
f 283/326/322 377/420/323 249/286/324 331/374/325
f 330/373/318 283/326/322 331/374/325 236/273/319
f 236/273/319 331/374/325 284/327/326 332/375/327
f 331/374/325 249/286/324 376/419/328 284/327/326
f 284/327/326 376/419/328 230/255/329 382/425/330
f 332/375/327 284/327/326 382/425/330 252/289/331
f 271/311/321 333/376/320 285/328/332 420/469/333
f 333/376/320 236/273/319 332/375/327 285/328/332
f 285/328/332 332/375/327 252/289/331 383/426/334
f 420/469/333 285/328/332 383/426/334 221/265/335
f 225/260/295 404/447/294 286/329/336 377/420/323
f 404/447/294 263/300/291 334/377/337 286/329/336
f 286/329/336 334/377/337 237/274/338 337/380/339
f 377/420/323 286/329/336 337/380/339 249/286/324
f 263/300/291 405/448/290 287/330/340 334/377/337
f 405/448/290 218/249/289 411/455/341 287/330/340
f 287/330/340 411/455/341 266/303/342 335/378/343
f 334/377/337 287/330/340 335/378/343 237/274/338
f 237/274/338 335/378/343 288/331/344 336/379/345
f 335/378/343 266/303/342 410/453/346 288/331/344
f 288/331/344 410/453/346 227/262/347 379/422/348
f 336/379/345 288/331/344 379/422/348 250/287/349
f 249/286/324 337/380/339 289/332/350 376/419/328
f 337/380/339 237/274/338 336/379/345 289/332/350
f 289/332/350 336/379/345 250/287/349 378/421/351
f 376/419/328 289/332/350 378/421/351 230/255/329
f 230/255/329 378/421/351 290/333/352 380/423/353
f 378/421/351 250/287/349 338/381/354 290/333/352
f 290/333/352 338/381/354 238/275/355 341/384/356
f 380/423/353 290/333/352 341/384/356 251/288/357
f 250/287/349 379/422/348 291/334/358 338/381/354
f 379/422/348 227/262/347 412/457/359 291/334/358
f 291/334/358 412/457/359 267/305/360 339/382/361
f 338/381/354 291/334/358 339/382/361 238/275/355
f 238/275/355 339/382/361 292/335/362 340/383/363
f 339/382/361 267/305/360 413/459/364 292/335/362
f 292/335/362 413/459/364 220/252/365 415/462/366
f 340/383/363 292/335/362 415/462/366 268/307/367
f 251/288/357 341/384/356 293/336/368 381/424/369
f 341/384/356 238/275/355 340/383/363 293/336/368
f 293/336/368 340/383/363 268/307/367 414/461/370
f 381/424/369 293/336/368 414/461/370 228/264/371
f 221/265/335 383/426/334 294/337/372 418/465/373
f 383/426/334 252/289/331 342/385/374 294/337/372
f 294/337/372 342/385/374 239/276/375 345/388/376
f 418/465/373 294/337/372 345/388/376 270/309/377
f 252/289/331 382/425/330 295/338/378 342/385/374
f 382/425/330 230/255/329 380/423/353 295/338/378
f 295/338/378 380/423/353 251/288/357 343/386/379
f 342/385/374 295/338/378 343/386/379 239/276/375
f 239/276/375 343/386/379 296/339/380 344/387/381
f 343/386/379 251/288/357 381/424/369 296/339/380
f 296/339/380 381/424/369 228/264/371 416/463/382
f 344/387/381 296/339/380 416/463/382 269/308/383
f 270/309/377 345/388/376 297/340/384 419/467/385
f 345/388/376 239/276/375 344/387/381 297/340/384
f 297/340/384 344/387/381 269/308/383 417/464/386
f 419/467/385 297/340/384 417/464/386 219/250/387
f 219/250/387 417/464/386 298/341/388 425/479/389
f 417/464/386 269/308/383 346/389/390 298/341/388
f 298/341/388 346/389/390 240/277/391 349/392/392
f 425/479/389 298/341/388 349/392/392 273/315/393
f 269/308/383 416/463/382 299/342/394 346/389/390
f 416/463/382 228/264/371 385/428/395 299/342/394
f 299/342/394 385/428/395 253/290/396 347/390/397
f 346/389/390 299/342/394 347/390/397 240/277/391
f 240/277/391 347/390/397 300/343/398 348/391/399
f 347/390/397 253/290/396 384/427/400 300/343/398
f 300/343/398 384/427/400 231/256/401 388/431/402
f 348/391/399 300/343/398 388/431/402 255/292/403
f 273/315/393 349/392/392 301/344/404 424/477/405
f 349/392/392 240/277/391 348/391/399 301/344/404
f 301/344/404 348/391/399 255/292/403 389/432/406
f 424/477/405 301/344/404 389/432/406 223/269/407
f 228/264/371 414/461/370 302/345/408 385/428/395
f 414/461/370 268/307/367 350/393/409 302/345/408
f 302/345/408 350/393/409 241/278/410 353/396/411
f 385/428/395 302/345/408 353/396/411 253/290/396
f 268/307/367 415/462/366 303/346/412 350/393/409
f 415/462/366 220/252/365 423/475/413 303/346/412
f 303/346/412 423/475/413 272/313/414 351/394/415
f 350/393/409 303/346/412 351/394/415 241/278/410
f 241/278/410 351/394/415 304/347/416 352/395/417
f 351/394/415 272/313/414 422/473/418 304/347/416
f 304/347/416 422/473/418 222/267/419 387/430/420
f 352/395/417 304/347/416 387/430/420 254/291/421
f 253/290/396 353/396/411 305/348/422 384/427/400
f 353/396/411 241/278/410 352/395/417 305/348/422
f 305/348/422 352/395/417 254/291/421 386/429/423
f 384/427/400 305/348/422 386/429/423 231/256/401
f 232/257/424 390/433/425 306/349/426 392/435/427
f 390/433/425 256/293/428 354/397/429 306/349/426
f 306/349/426 354/397/429 242/279/430 357/400/431
f 392/435/427 306/349/426 357/400/431 257/294/432
f 256/293/428 391/434/433 307/350/434 354/397/429
f 391/434/433 222/268/419 422/474/418 307/350/434
f 307/350/434 422/474/418 272/314/414 355/398/435
f 354/397/429 307/350/434 355/398/435 242/279/430
f 242/279/430 355/398/435 308/351/436 356/399/437
f 355/398/435 272/314/414 423/476/413 308/351/436
f 308/351/436 423/476/413 220/253/365 413/460/364
f 356/399/437 308/351/436 413/460/364 267/306/360
f 257/294/432 357/400/431 309/352/438 393/436/439
f 357/400/431 242/279/430 356/399/437 309/352/438
f 309/352/438 356/399/437 267/306/360 412/458/359
f 393/436/439 309/352/438 412/458/359 227/263/347
f 224/259/282 395/438/440 310/353/441 402/445/283
f 395/438/440 258/295/442 358/401/443 310/353/441
f 310/353/441 358/401/443 243/280/444 361/404/445
f 402/445/283 310/353/441 361/404/445 262/299/284
f 258/295/442 394/437/446 311/354/447 358/401/443
f 394/437/446 232/257/424 392/435/427 311/354/447
f 311/354/447 392/435/427 257/294/432 359/402/448
f 358/401/443 311/354/447 359/402/448 243/280/444
f 243/280/444 359/402/448 312/355/449 360/403/450
f 359/402/448 257/294/432 393/436/439 312/355/449
f 312/355/449 393/436/439 227/263/347 410/454/346
f 360/403/450 312/355/449 410/454/346 266/304/342
f 262/299/284 361/404/445 313/356/451 403/446/288
f 361/404/445 243/280/444 360/403/450 313/356/451
f 313/356/451 360/403/450 266/304/342 411/456/341
f 403/446/288 313/356/451 411/456/341 218/249/289
f 233/258/452 396/439/453 314/357/454 398/441/455
f 396/439/453 259/296/456 362/405/457 314/357/454
f 314/357/454 362/405/457 244/281/458 365/408/459
f 398/441/455 314/357/454 365/408/459 260/297/460
f 259/296/456 397/440/461 315/358/462 362/405/457
f 397/440/461 226/261/296 408/451/299 315/358/462
f 315/358/462 408/451/299 265/302/304 363/406/463
f 362/405/457 315/358/462 363/406/463 244/281/458
f 244/281/458 363/406/463 316/359/464 364/407/465
f 363/406/463 265/302/304 409/452/313 316/359/464
f 316/359/464 409/452/313 217/248/315 421/472/317
f 364/407/465 316/359/464 421/472/317 271/312/321
f 260/297/460 365/408/459 317/360/466 399/442/467
f 365/408/459 244/281/458 364/407/465 317/360/466
f 317/360/466 364/407/465 271/312/321 420/470/333
f 399/442/467 317/360/466 420/470/333 221/266/335
f 223/270/407 401/444/468 318/361/469 424/478/405
f 401/444/468 261/298/470 366/409/471 318/361/469
f 318/361/469 366/409/471 245/282/472 369/412/473
f 424/478/405 318/361/469 369/412/473 273/316/393
f 261/298/470 400/443/474 319/362/475 366/409/471
f 400/443/474 233/258/452 398/441/455 319/362/475
f 319/362/475 398/441/455 260/297/460 367/410/476
f 366/409/471 319/362/475 367/410/476 245/282/472
f 245/282/472 367/410/476 320/363/477 368/411/478
f 367/410/476 260/297/460 399/442/467 320/363/477
f 320/363/477 399/442/467 221/266/335 418/466/373
f 368/411/478 320/363/477 418/466/373 270/310/377
f 273/316/393 369/412/473 321/364/479 425/480/389
f 369/412/473 245/282/472 368/411/478 321/364/479
f 321/364/479 368/411/478 270/310/377 419/468/385
f 425/480/389 321/364/479 419/468/385 219/251/387
s 5
f 427/482/480 428/483/481 429/484/482 430/485/483
f 438/493/484 439/494/485 426/481/486 431/486/487
f 436/491/488 437/492/489 429/484/482 428/483/481
f 426/481/486 427/482/480 430/485/483 431/486/487
f 439/494/485 440/495/490 432/487/491 426/481/486
f 432/487/491 433/488/492 427/482/480 426/481/486
f 433/488/492 434/489/493 428/483/481 427/482/480
f 435/490/494 436/491/488 428/483/481 434/489/493
f 437/492/489 446/501/495 447/502/496 429/484/482
f 430/485/483 429/484/482 447/502/496 448/503/497
f 431/486/487 430/485/483 448/503/497 449/504/498
f 449/504/498 450/505/499 438/493/484 431/486/487
f 441/496/500 442/497/501 432/487/491 440/495/490
f 442/497/501 443/498/502 433/488/492 432/487/491
f 443/498/502 444/499/503 434/489/493 433/488/492
f 444/499/503 445/500/504 435/490/494 434/489/493
f 462/517/505 463/518/506 435/490/494 445/500/504
f 463/518/506 464/519/507 436/491/488 435/490/494
f 464/519/507 465/520/508 437/492/489 436/491/488
f 465/520/508 466/521/509 446/501/495 437/492/489
f 469/524/510 470/525/511 438/493/484 450/505/499
f 470/525/511 471/526/512 439/494/485 438/493/484
f 471/526/512 472/527/513 440/495/490 439/494/485
f 472/527/513 473/528/514 441/496/500 440/495/490
f 256/293/515 460/515/516 474/529/517 391/434/518
f 390/433/519 459/514/520 460/515/516 256/293/515
f 232/257/521 458/513/522 459/514/520 390/433/519
f 394/437/523 457/512/524 458/513/522 232/257/521
f 258/295/525 456/511/526 457/512/524 394/437/523
f 395/438/527 461/516/528 456/511/526 258/295/525
f 455/510/529 467/522/530 397/440/531 259/296/532
f 454/509/533 455/510/529 259/296/532 396/439/534
f 453/508/535 454/509/533 396/439/534 233/258/536
f 452/507/537 453/508/535 233/258/536 400/443/538
f 261/298/539 451/506/540 452/507/537 400/443/538
f 401/444/541 468/523/542 451/506/540 261/298/539
f 468/523/542 469/524/510 450/505/499 451/506/540
f 452/507/537 451/506/540 450/505/499 449/504/498
f 449/504/498 448/503/497 453/508/535 452/507/537
f 448/503/497 447/502/496 454/509/533 453/508/535
f 447/502/496 446/501/495 455/510/529 454/509/533
f 446/501/495 466/521/509 467/522/530 455/510/529
f 461/516/528 462/517/505 445/500/504 456/511/526
f 457/512/524 456/511/526 445/500/504 444/499/503
f 458/513/522 457/512/524 444/499/503 443/498/502
f 459/514/520 458/513/522 443/498/502 442/497/501
f 460/515/516 459/514/520 442/497/501 441/496/500
f 473/528/514 474/529/517 460/515/516 441/496/500
f 371/414/543 461/516/528 395/438/527 224/259/544
f 246/283/545 462/517/505 461/516/528 371/414/543
f 370/413/546 463/518/506 462/517/505 246/283/545
f 229/254/547 464/519/507 463/518/506 370/413/546
f 374/417/548 465/520/508 464/519/507 229/254/547
f 374/417/548 248/285/549 466/521/509 465/520/508
f 467/522/530 466/521/509 248/285/549 375/418/550
f 397/440/531 467/522/530 375/418/550 226/261/551
f 389/432/552 468/523/542 401/444/541 223/269/553
f 255/292/554 469/524/510 468/523/542 389/432/552
f 388/431/555 470/525/511 469/524/510 255/292/554
f 231/256/556 471/526/512 470/525/511 388/431/555
f 386/429/557 472/527/513 471/526/512 231/256/556
f 254/291/558 473/528/514 472/527/513 386/429/557
f 387/430/559 474/529/517 473/528/514 254/291/558
f 391/434/518 474/529/517 387/430/559 222/268/560
g default
v 2.058731 -0.216505 0.119788
v 2.901109 -0.216505 0.237969
v 2.058731 -0.113648 0.119788
v 2.901109 -0.113648 0.237969
v 2.058731 -0.113648 -0.119788
v 2.901109 -0.113648 -0.237969
v 2.058731 -0.216505 -0.119788
v 2.901109 -0.216505 -0.237969
v 3.210562 -0.216505 -0.010316
v 3.210562 -0.216505 0.010316
v 3.210562 -0.113648 -0.010316
v 3.210562 -0.113648 0.010316
v 2.858731 -0.216505 0.119788
v 2.858731 -0.113648 0.119788
v 2.858731 -0.113648 -0.119788
v 2.858731 -0.216505 -0.119788
vt 0.375000 0.000000
vt 0.625000 0.000000
vt 0.375000 0.250000
vt 0.625000 0.250000
vt 0.375000 0.500000
vt 0.625000 0.500000
vt 0.375000 0.750000
vt 0.625000 0.750000
vt 0.375000 1.000000
vt 0.625000 1.000000
vt 0.875000 0.000000
vt 0.875000 0.250000
vt 0.125000 0.000000
vt 0.125000 0.250000
vt 0.625000 0.000000
vt 0.875000 0.000000
vt 0.875000 0.250000
vt 0.625000 0.250000
vt 0.575000 0.000000
vt 0.575000 1.000000
vt 0.575000 0.250000
vt 0.575000 0.500000
vt 0.575000 0.750000
vn 0.000000 0.000000 1.000000
vn -0.138933 0.000000 0.990302
vn -0.138933 0.000000 0.990302
vn 0.000000 0.000000 1.000000
vn 0.000000 1.000000 0.000000
vn 0.000000 1.000000 0.000000
vn 0.000000 1.000000 0.000000
vn 0.000000 1.000000 0.000000
vn 0.000000 0.000000 -1.000000
vn -0.138933 0.000000 -0.990302
vn -0.138933 0.000000 -0.990302
vn 0.000000 0.000000 -1.000000
vn 0.000000 -1.000000 0.000000
vn 0.000000 -1.000000 0.000000
vn 0.000000 -1.000000 0.000000
vn 0.000000 -1.000000 0.000000
vn 1.000000 0.000000 0.000000
vn 1.000000 0.000000 0.000000
vn 1.000000 0.000000 0.000000
vn 1.000000 0.000000 0.000000
vn -1.000000 0.000000 0.000000
vn -1.000000 0.000000 0.000000
vn -1.000000 0.000000 0.000000
vn -1.000000 0.000000 0.000000
vn 0.000000 -1.000000 0.000000
vn 0.000000 -1.000000 0.000000
vn 0.000000 -1.000000 0.000000
vn 0.000000 -1.000000 0.000000
vn 0.592583 0.000000 -0.805509
vn 0.592583 0.000000 -0.805509
vn 0.592583 0.000000 -0.805509
vn 0.592583 0.000000 -0.805509
vn 0.000000 1.000000 0.000000
vn 0.000000 1.000000 0.000000
vn 0.000000 1.000000 0.000000
vn 0.000000 1.000000 0.000000
vn 0.592583 0.000000 0.805509
vn 0.592583 0.000000 0.805509
vn 0.592583 0.000000 0.805509
vn 0.592583 0.000000 0.805509
vn -0.941310 0.000000 0.337543
vn -0.941310 0.000000 0.337543
vn 0.000000 1.000000 0.000000
vn 0.000000 1.000000 0.000000
vn -0.941310 0.000000 -0.337543
vn -0.941310 0.000000 -0.337543
vn 0.000000 -1.000000 0.000000
vn 0.000000 -1.000000 0.000000
s 1
g Geo_Grp Camera_marker Arrow_Up Arrow_Grp
usemtl initialShadingGroup
f 475/530/561 487/548/562 488/550/563 477/532/564
s 2
f 477/532/565 488/550/566 489/551/567 479/534/568
s 3
f 479/534/569 489/551/570 490/552/571 481/536/572
s 4
f 481/536/573 490/552/574 487/549/575 475/538/576
s off
f 484/544/577 483/545/578 485/546/579 486/547/580
f 481/542/581 475/530/582 477/532/583 479/543/584
f 476/531/585 482/540/586 483/545/587 484/544/588
f 482/540/589 480/541/590 485/546/591 483/545/592
f 480/541/593 478/533/594 486/547/595 485/546/596
f 478/533/597 476/531/598 484/544/599 486/547/600
s 1
f 488/550/563 487/548/562 476/531/601 478/533/602
s 2
f 489/551/567 488/550/566 478/533/603 480/535/604
s 3
f 490/552/571 489/551/570 480/535/605 482/537/606
s 4
f 487/549/575 490/552/574 482/537/607 476/539/608
g default
v -0.119788 -0.216505 2.058732
v -0.237969 -0.216505 2.901110
v -0.119788 -0.113648 2.058732
v -0.237969 -0.113648 2.901110
v 0.119788 -0.113648 2.058732
v 0.237969 -0.113648 2.901110
v 0.119788 -0.216505 2.058732
v 0.237969 -0.216505 2.901110
v 0.010316 -0.216505 3.210562
v -0.010316 -0.216505 3.210563
v 0.010316 -0.113648 3.210562
v -0.010316 -0.113648 3.210563
v -0.119788 -0.216505 2.858731
v -0.119788 -0.113648 2.858731
v 0.119788 -0.113648 2.858732
v 0.119788 -0.216505 2.858732
vt 0.375000 0.000000
vt 0.625000 0.000000
vt 0.375000 0.250000
vt 0.625000 0.250000
vt 0.375000 0.500000
vt 0.625000 0.500000
vt 0.375000 0.750000
vt 0.625000 0.750000
vt 0.375000 1.000000
vt 0.625000 1.000000
vt 0.875000 0.000000
vt 0.875000 0.250000
vt 0.125000 0.000000
vt 0.125000 0.250000
vt 0.625000 0.000000
vt 0.875000 0.000000
vt 0.875000 0.250000
vt 0.625000 0.250000
vt 0.575000 0.000000
vt 0.575000 1.000000
vt 0.575000 0.250000
vt 0.575000 0.500000
vt 0.575000 0.750000
vn -1.000000 0.000000 0.000000
vn -0.990302 0.000000 -0.138933
vn -0.990302 0.000000 -0.138933
vn -1.000000 0.000000 0.000000
vn 0.000000 1.000000 0.000000
vn 0.000000 1.000000 -0.000000
vn 0.000000 1.000000 -0.000000
vn 0.000000 1.000000 0.000000
vn 1.000000 0.000000 -0.000000
vn 0.990302 0.000000 -0.138933
vn 0.990302 0.000000 -0.138933
vn 1.000000 0.000000 -0.000000
vn 0.000000 -1.000000 0.000000
vn 0.000000 -1.000000 -0.000000
vn 0.000000 -1.000000 -0.000000
vn 0.000000 -1.000000 0.000000
vn 0.000000 0.000000 1.000000
vn 0.000000 0.000000 1.000000
vn 0.000000 0.000000 1.000000
vn 0.000000 0.000000 1.000000
vn 0.000000 0.000000 -1.000000
vn 0.000000 0.000000 -1.000000
vn 0.000000 0.000000 -1.000000
vn 0.000000 0.000000 -1.000000
vn 0.000000 -1.000000 -0.000000
vn 0.000000 -1.000000 -0.000000
vn 0.000000 -1.000000 -0.000000
vn 0.000000 -1.000000 -0.000000
vn 0.805509 0.000000 0.592583
vn 0.805509 0.000000 0.592583
vn 0.805509 0.000000 0.592583
vn 0.805509 0.000000 0.592583
vn 0.000000 1.000000 0.000000
vn 0.000000 1.000000 0.000000
vn 0.000000 1.000000 0.000000
vn 0.000000 1.000000 0.000000
vn -0.805509 0.000000 0.592583
vn -0.805509 0.000000 0.592583
vn -0.805509 0.000000 0.592583
vn -0.805509 0.000000 0.592583
vn -0.337545 0.000000 -0.941309
vn -0.337545 0.000000 -0.941309
vn 0.000000 1.000000 -0.000000
vn 0.000000 1.000000 -0.000000
vn 0.337543 0.000000 -0.941310
vn 0.337543 0.000000 -0.941310
vn 0.000000 -1.000000 -0.000000
vn 0.000000 -1.000000 -0.000000
s 1
g Geo_Grp Camera_marker Arrow_Grp Arrow_Right
usemtl initialShadingGroup
f 491/553/609 503/571/610 504/573/611 493/555/612
s 2
f 493/555/613 504/573/614 505/574/615 495/557/616
s 3
f 495/557/617 505/574/618 506/575/619 497/559/620
s 4
f 497/559/621 506/575/622 503/572/623 491/561/624
s off
f 500/567/625 499/568/626 501/569/627 502/570/628
f 497/565/629 491/553/630 493/555/631 495/566/632
f 492/554/633 498/563/634 499/568/635 500/567/636
f 498/563/637 496/564/638 501/569/639 499/568/640
f 496/564/641 494/556/642 502/570/643 501/569/644
f 494/556/645 492/554/646 500/567/647 502/570/648
s 1
f 504/573/611 503/571/610 492/554/649 494/556/650
s 2
f 505/574/615 504/573/614 494/556/651 496/558/652
s 3
f 506/575/619 505/574/618 496/558/653 498/560/654
s 4
f 503/572/623 506/575/622 498/560/655 492/562/656
g default
v -2.058732 -0.216505 -0.119788
v -2.901110 -0.216505 -0.237969
v -2.058732 -0.113648 -0.119788
v -2.901110 -0.113648 -0.237969
v -2.058732 -0.113648 0.119788
v -2.901110 -0.113648 0.237969
v -2.058732 -0.216505 0.119788
v -2.901110 -0.216505 0.237969
v -3.210562 -0.216505 0.010316
v -3.210562 -0.216505 -0.010316
v -3.210562 -0.113648 0.010316
v -3.210562 -0.113648 -0.010316
v -2.858732 -0.216505 -0.119788
v -2.858732 -0.113648 -0.119788
v -2.858732 -0.113648 0.119788
v -2.858732 -0.216505 0.119788
vt 0.375000 0.000000
vt 0.625000 0.000000
vt 0.375000 0.250000
vt 0.625000 0.250000
vt 0.375000 0.500000
vt 0.625000 0.500000
vt 0.375000 0.750000
vt 0.625000 0.750000
vt 0.375000 1.000000
vt 0.625000 1.000000
vt 0.875000 0.000000
vt 0.875000 0.250000
vt 0.125000 0.000000
vt 0.125000 0.250000
vt 0.625000 0.000000
vt 0.875000 0.000000
vt 0.875000 0.250000
vt 0.625000 0.250000
vt 0.575000 0.000000
vt 0.575000 1.000000
vt 0.575000 0.250000
vt 0.575000 0.500000
vt 0.575000 0.750000
vn 0.000000 0.000000 -1.000000
vn 0.138933 0.000000 -0.990302
vn 0.138933 0.000000 -0.990302
vn 0.000000 0.000000 -1.000000
vn 0.000000 1.000000 0.000000
vn 0.000000 1.000000 0.000000
vn 0.000000 1.000000 0.000000
vn 0.000000 1.000000 0.000000
vn 0.000000 0.000000 1.000000
vn 0.138933 0.000000 0.990302
vn 0.138933 0.000000 0.990302
vn 0.000000 0.000000 1.000000
vn 0.000000 -1.000000 0.000000
vn 0.000000 -1.000000 0.000000
vn 0.000000 -1.000000 0.000000
vn 0.000000 -1.000000 0.000000
vn -1.000000 0.000000 0.000000
vn -1.000000 0.000000 0.000000
vn -1.000000 0.000000 0.000000
vn -1.000000 0.000000 0.000000
vn 1.000000 0.000000 0.000000
vn 1.000000 0.000000 0.000000
vn 1.000000 0.000000 0.000000
vn 1.000000 0.000000 0.000000
vn 0.000000 -1.000000 0.000000
vn 0.000000 -1.000000 0.000000
vn 0.000000 -1.000000 0.000000
vn 0.000000 -1.000000 0.000000
vn -0.592583 0.000000 0.805509
vn -0.592583 0.000000 0.805509
vn -0.592583 0.000000 0.805509
vn -0.592583 0.000000 0.805509
vn 0.000000 1.000000 0.000000
vn 0.000000 1.000000 0.000000
vn 0.000000 1.000000 0.000000
vn 0.000000 1.000000 0.000000
vn -0.592583 0.000000 -0.805509
vn -0.592583 0.000000 -0.805509
vn -0.592583 0.000000 -0.805509
vn -0.592583 0.000000 -0.805509
vn 0.941310 0.000000 -0.337543
vn 0.941310 0.000000 -0.337543
vn 0.000000 1.000000 0.000000
vn 0.000000 1.000000 0.000000
vn 0.941310 0.000000 0.337543
vn 0.941310 0.000000 0.337543
vn 0.000000 -1.000000 0.000000
vn 0.000000 -1.000000 0.000000
s 1
g Geo_Grp Camera_marker Arrow_Grp Arrow_Down
usemtl initialShadingGroup
f 507/576/657 519/594/658 520/596/659 509/578/660
s 2
f 509/578/661 520/596/662 521/597/663 511/580/664
s 3
f 511/580/665 521/597/666 522/598/667 513/582/668
s 4
f 513/582/669 522/598/670 519/595/671 507/584/672
s off
f 516/590/673 515/591/674 517/592/675 518/593/676
f 513/588/677 507/576/678 509/578/679 511/589/680
f 508/577/681 514/586/682 515/591/683 516/590/684
f 514/586/685 512/587/686 517/592/687 515/591/688
f 512/587/689 510/579/690 518/593/691 517/592/692
f 510/579/693 508/577/694 516/590/695 518/593/696
s 1
f 520/596/659 519/594/658 508/577/697 510/579/698
s 2
f 521/597/663 520/596/662 510/579/699 512/581/700
s 3
f 522/598/667 521/597/666 512/581/701 514/583/702
s 4
f 519/595/671 522/598/670 514/583/703 508/585/704
g default
v 0.119788 -0.216505 -2.059302
v 0.237969 -0.216505 -2.901913
v 0.119788 -0.113648 -2.059302
v 0.237969 -0.113648 -2.901913
v -0.119788 -0.113648 -2.059302
v -0.237969 -0.113648 -2.901913
v -0.119788 -0.216505 -2.059302
v -0.237969 -0.216505 -2.901913
v -0.010316 -0.216505 -3.211452
v 0.010316 -0.216505 -3.211452
v -0.010316 -0.113648 -3.211452
v 0.010316 -0.113648 -3.211452
v 0.119788 -0.216505 -2.859524
v 0.119788 -0.113648 -2.859524
v -0.119788 -0.113648 -2.859523
v -0.119788 -0.216505 -2.859523
vt 0.375000 0.000000
vt 0.625000 0.000000
vt 0.375000 0.250000
vt 0.625000 0.250000
vt 0.375000 0.500000
vt 0.625000 0.500000
vt 0.375000 0.750000
vt 0.625000 0.750000
vt 0.375000 1.000000
vt 0.625000 1.000000
vt 0.875000 0.000000
vt 0.875000 0.250000
vt 0.125000 0.000000
vt 0.125000 0.250000
vt 0.625000 0.000000
vt 0.875000 0.000000
vt 0.875000 0.250000
vt 0.625000 0.250000
vt 0.575000 0.000000
vt 0.575000 1.000000
vt 0.575000 0.250000
vt 0.575000 0.500000
vt 0.575000 0.750000
vn 1.000000 0.000000 0.000000
vn 0.990307 0.000000 0.138896
vn 0.990307 0.000000 0.138896
vn 1.000000 0.000000 0.000000
vn 0.000000 1.000000 0.000000
vn 0.000000 1.000000 -0.000000
vn 0.000000 1.000000 -0.000000
vn 0.000000 1.000000 0.000000
vn -1.000000 0.000000 0.000000
vn -0.990307 0.000000 0.138896
vn -0.990307 0.000000 0.138896
vn -1.000000 0.000000 0.000000
vn 0.000000 -1.000000 -0.000000
vn 0.000000 -1.000000 -0.000000
vn 0.000000 -1.000000 -0.000000
vn 0.000000 -1.000000 -0.000000
vn 0.000014 0.000000 -1.000000
vn 0.000014 0.000000 -1.000000
vn 0.000014 0.000000 -1.000000
vn 0.000014 0.000000 -1.000000
vn 0.000000 0.000000 1.000000
vn 0.000000 0.000000 1.000000
vn 0.000000 0.000000 1.000000
vn 0.000000 0.000000 1.000000
vn 0.000000 -1.000000 0.000000
vn 0.000000 -1.000000 0.000000
vn 0.000000 -1.000000 0.000000
vn 0.000000 -1.000000 0.000000
vn -0.805588 0.000000 -0.592476
vn -0.805588 0.000000 -0.592476
vn -0.805588 0.000000 -0.592476
vn -0.805588 0.000000 -0.592476
vn 0.000000 1.000000 0.000000
vn 0.000000 1.000000 0.000000
vn 0.000000 1.000000 0.000000
vn 0.000000 1.000000 0.000000
vn 0.805588 0.000000 -0.592477
vn 0.805588 0.000000 -0.592477
vn 0.805588 0.000000 -0.592477
vn 0.805588 0.000000 -0.592477
vn 0.337625 0.000000 0.941281
vn 0.337625 0.000000 0.941281
vn 0.000000 1.000000 -0.000000
vn 0.000000 1.000000 -0.000000
vn -0.337627 0.000000 0.941280
vn -0.337627 0.000000 0.941280
vn 0.000000 -1.000000 0.000000
vn 0.000000 -1.000000 0.000000
s 1
g Geo_Grp Camera_marker Arrow_Grp Arrow_Left
usemtl initialShadingGroup
f 523/599/705 535/617/706 536/619/707 525/601/708
s 2
f 525/601/709 536/619/710 537/620/711 527/603/712
s 3
f 527/603/713 537/620/714 538/621/715 529/605/716
s 4
f 529/605/717 538/621/718 535/618/719 523/607/720
s off
f 532/613/721 531/614/722 533/615/723 534/616/724
f 529/611/725 523/599/726 525/601/727 527/612/728
f 524/600/729 530/609/730 531/614/731 532/613/732
f 530/609/733 528/610/734 533/615/735 531/614/736
f 528/610/737 526/602/738 534/616/739 533/615/740
f 526/602/741 524/600/742 532/613/743 534/616/744
s 1
f 536/619/707 535/617/706 524/600/745 526/602/746
s 2
f 537/620/711 536/619/710 526/602/747 528/604/748
s 3
f 538/621/715 537/620/714 528/604/749 530/606/750
s 4
f 535/618/719 538/621/718 530/606/751 524/608/752
